<svg width="180" height="29" viewBox="0 0 180 29" fill="none" xmlns="http://www.w3.org/2000/svg">
<path d="M87.0266 7.283V9.99426L88.7278 10.6056V21.8228H92.4757V7.283H87.0266ZM90.2961 1.06299C89.0999 1.06299 88.1962 2.0731 88.1962 3.21608C88.1962 4.38565 89.0999 5.36911 90.2961 5.36911C91.4657 5.36911 92.4757 4.38565 92.4757 3.21608C92.4757 2.0731 91.4922 1.06299 90.2961 1.06299Z" fill="#A4A4AA"/>
<path d="M93.8579 7.28339V21.8232H97.7653V13.7958C97.7653 12.1477 98.802 10.6592 100.689 10.6592C102.125 10.6592 103.241 11.5629 103.241 13.2641V21.8232H107.122V13.078C107.122 8.45291 104.357 7.01758 101.699 7.01758C98.6159 7.01758 97.4729 9.22376 97.4729 9.22376L96.8615 7.28339H93.8579V7.28339Z" fill="#A4A4AA"/>
<path d="M166.551 1.80127V21.8177H170.458V13.7902C170.458 12.1422 171.495 10.6536 173.382 10.6536C174.817 10.6536 175.934 11.5574 175.934 13.2586V21.8177H179.814V13.0724C179.814 8.44733 177.05 7.01201 174.392 7.01201C171.309 7.01201 170.166 9.21819 170.166 9.21819V1.80127H166.551Z" fill="#A4A4AA"/>
<path d="M107.866 14.7322C107.866 19.1712 111.083 22.1483 115.442 22.1483C117.382 22.1483 119.456 21.723 120.891 20.899L119.615 18.0814C118.658 18.5067 117.17 18.9586 115.522 18.9586C113.794 18.9586 112.013 18.1877 111.853 16.1144H121.582C121.582 16.1144 121.715 15.4233 121.715 14.4398C121.715 10.5855 119.535 7.07682 115.07 7.07682C110.764 7.02365 107.866 10.2666 107.866 14.7322ZM111.8 13.3765C112.172 11.4095 113.475 10.3729 115.282 10.3729C117.409 10.3729 118.02 11.7817 118.1 13.3765H111.8Z" fill="#A4A4AA"/>
<path d="M59.063 7.2832L64.6982 21.7433C64.5121 22.3015 64.2197 22.8597 63.6349 22.8597C62.997 22.8863 61.8009 22.7002 61.2958 22.6205L60.6313 26.1292C61.7211 26.4747 62.7578 26.6076 63.7413 26.6076C66.107 26.6076 67.1702 25.4646 68.2601 22.7799L74.48 7.30975H70.4397L66.7715 17.8093H66.6917L63.1299 7.30975H59.063V7.2832Z" fill="#D4D4DA"/>
<path fill-rule="evenodd" clip-rule="evenodd" d="M76.1019 7.4692C76.9259 7.15022 77.8562 6.99072 78.8929 6.99072C79.4511 6.99072 80.3548 7.04391 80.8865 7.28314H86.2558V10.0475L84.4483 10.4994C84.6609 10.8715 84.9799 11.4829 84.9799 12.5196C84.9799 15.1777 82.9332 17.2244 79.1321 17.2244C78.4144 17.2244 77.1385 17.1181 76.2613 16.6928C76.0221 16.8257 75.7563 17.1447 75.7563 17.4371C75.7563 18.6864 78.122 18.6333 80.9662 18.6333C84.9534 18.6333 85.7508 20.5471 85.7508 22.3546C85.7508 25.9165 81.7105 26.5544 79.3447 26.5544C77.0056 26.5544 72.6995 26.1025 72.6995 22.7267C72.6995 21.0521 73.7095 20.4939 74.2677 20.1484C73.2576 19.6699 72.6995 18.7661 72.6995 17.6763C72.6995 16.427 73.4171 15.7093 74.2146 15.2043C73.9222 14.8853 73.6564 14.5664 73.4437 14.1942L75.969 7.86791C75.9955 7.76159 76.0221 7.76157 76.0487 7.65525C76.1019 7.62867 76.1019 7.54894 76.1019 7.4692ZM81.232 21.4243C82.0826 21.4243 82.5079 21.823 82.5079 22.3546C82.5079 23.6039 80.3814 23.6571 79.5042 23.6571C77.7765 23.6571 75.9955 23.6039 75.9955 22.3015C75.9955 21.8496 76.2613 21.3711 76.6069 21.2116C77.3246 21.3711 78.1486 21.4243 81.232 21.4243ZM79.0523 9.78174C80.6472 9.78174 81.4978 10.845 81.4978 12.1474C81.4978 13.636 80.4877 14.6461 79.0258 14.6461C77.4575 14.6461 76.4474 13.5828 76.4474 12.174C76.4208 10.845 77.4043 9.78174 79.0523 9.78174Z" fill="#A4A4AA"/>
<path d="M38.4625 10.3665C40.5093 10.3665 42.1839 12.0145 42.1839 14.5663C42.1839 17.065 40.4827 18.7662 38.4625 18.7662C36.0968 18.7662 34.6083 17.0384 34.6083 14.5663C34.6083 11.8816 36.3892 10.3665 38.4625 10.3665ZM39.1271 6.99072C37.7714 6.99072 36.0171 7.76157 35.007 9.25012L34.3425 7.25653H31.2856V26.5544H35.007V19.9623C35.9639 21.5572 38.117 22.0888 39.1005 22.0888C43.5927 22.0888 45.985 18.5535 45.985 14.5929C45.985 10.2868 43.4066 6.99072 39.1271 6.99072Z" fill="#D4D4DA"/>
<path d="M47.6336 8.18717L48.3247 10.8984C49.4145 10.6592 51.4347 10.3403 52.7106 10.3403C53.8802 10.3403 55.3421 10.6327 55.3421 12.7326V13.1578C54.4118 13.0515 53.2953 12.9718 52.3384 12.9718C49.0158 12.9718 46.3577 14.4869 46.3577 17.6235C46.3577 20.7069 48.9361 22.3549 51.5942 22.3549C53.5878 22.3549 55.289 21.2916 56.113 19.8562V20.1753C56.113 21.7701 57.6547 22.0891 58.5584 22.0891C59.5951 22.0891 60.7646 21.6904 60.871 21.6106V18.5538C60.2862 18.607 59.8077 18.6336 59.5951 18.6336C59.1698 18.6336 58.9837 18.5272 58.9837 18.1285V12.0946C58.9837 8.93143 56.937 7.25684 53.3485 7.25684C51.3549 7.25684 48.936 7.76188 47.6336 8.18717ZM55.3155 15.6565V17.1184C55.3155 18.4741 53.6409 19.4575 52.2055 19.4575C50.9562 19.4575 49.8398 18.7399 49.8398 17.4374C49.8398 15.7362 51.7536 15.4172 53.0029 15.4172C53.7472 15.4438 54.5979 15.5502 55.3155 15.6565Z" fill="#D4D4DA"/>
<path d="M12.5197 0L25.0128 7.25665V21.7433L12.5197 29L3.42894 23.7369L0 21.77V21.7433V20.3611V20.3345V7.23004C4.17323 4.83775 8.34649 2.41888 12.5197 0ZM11.9349 26.0495L12.4931 26.3684L22.7268 20.4409V19.7764C19.1384 21.8763 15.5499 23.9496 11.9349 26.0495ZM9.11733 24.4015L9.67549 24.7204L21.6104 17.8093L21.0522 17.4904C17.065 19.7763 13.0779 22.0889 9.11733 24.4015ZM6.27316 22.7534L6.83133 23.0724L18.7663 16.1613L18.208 15.8424C14.2209 18.1283 10.2337 20.4409 6.27316 22.7534ZM14.2475 14.8323L12.5197 15.8424H12.4931L3.34924 21.0788L3.98716 21.4509L15.922 14.5398L15.3639 14.2209C14.9917 14.407 14.6196 14.6196 14.2475 14.8323ZM2.286 17.1448L3.93401 18.1018L4.51879 17.7828L2.286 16.4803C2.286 16.7195 2.286 16.9322 2.286 17.1448ZM2.286 13.8488L6.80479 16.4537L7.38956 16.1347L2.31254 13.1842C2.28596 13.4235 2.286 13.6361 2.286 13.8488ZM17.5967 12.8387L22.7534 15.8158V15.1512L18.1814 12.4931C17.9688 12.626 17.7827 12.7324 17.5967 12.8387ZM2.286 10.5527L9.64895 14.8323L10.2337 14.5133L2.286 9.88815C2.286 10.1008 2.286 10.34 2.286 10.5527ZM12.44 12.5463L3.98716 7.60222L3.42894 7.92118L12.4931 13.1842L13.0779 12.8387L21.5307 7.86803L21.0257 7.57561C18.1815 9.22364 15.3107 10.8982 12.44 12.5463ZM20.4408 11.1907L22.7534 12.5463V11.8817L20.9991 10.8717C20.813 10.978 20.6269 11.0843 20.4408 11.1907ZM6.24656 6.27316L12.44 9.88815L13.0513 9.54265L6.83133 5.9276C6.64526 6.0605 6.45921 6.16684 6.24656 6.27316ZM9.09072 4.62515L15.3373 8.24014L15.8955 7.92118L9.64895 4.30612C9.48946 4.41245 9.30337 4.51882 9.09072 4.62515ZM11.9349 2.97707L18.1814 6.59212L18.7663 6.27316L12.5197 2.65811C12.3337 2.76443 12.1475 2.87075 11.9349 2.97707Z" fill="#D4D4DA"/>
<path d="M136.959 14.7322C136.959 19.1712 140.175 22.1483 144.535 22.1483C146.475 22.1483 148.548 21.723 149.984 20.899L148.708 18.0814C147.751 18.5067 146.262 18.9586 144.614 18.9586C142.887 18.9586 141.106 18.1877 140.946 16.1144H150.675C150.675 16.1144 150.808 15.4233 150.808 14.4398C150.808 10.5855 148.628 7.07682 144.162 7.07682C139.856 7.02365 136.959 10.2666 136.959 14.7322ZM140.893 13.3765C141.265 11.4095 142.568 10.3729 144.375 10.3729C146.502 10.3729 147.113 11.7817 147.193 13.3765H140.893Z" fill="#A4A4AA"/>
<path d="M132.939 3.34521H129.144V6.87606H127.052V9.88422H129.144V17.9167C129.137 18.8612 129.341 19.6617 129.765 20.3082L129.765 20.3087L129.766 20.3092C130.193 20.9502 130.771 21.4245 131.497 21.7306L131.497 21.7308L131.498 21.7311C132.219 22.0288 133.025 22.1627 133.914 22.1366C134.413 22.1236 134.84 22.0782 135.192 21.9984C135.54 21.9212 135.812 21.8494 136.006 21.7825L137.345 21.2612L136.09 18.495L135.327 18.7597C135.238 18.7834 135.103 18.8112 134.919 18.843L134.918 18.8431L134.918 18.8431C134.75 18.8732 134.561 18.8886 134.351 18.8886C134.08 18.8886 133.838 18.8465 133.621 18.7647C133.423 18.6897 133.258 18.5501 133.128 18.335C133.007 18.1203 132.939 17.7949 132.939 17.3416V9.88422H135.846V6.87606H132.939V3.34521Z" fill="#A4A4AA"/>
<path d="M158.762 22.1293C157.262 22.1293 155.974 21.8193 154.898 21.1994C153.828 20.5794 153.003 19.7231 152.423 18.6305C151.849 17.5317 151.562 16.2673 151.562 14.837C151.562 13.4007 151.855 12.1331 152.442 11.0344C153.029 9.9295 153.858 9.07014 154.927 8.45631C156.003 7.83635 157.275 7.52637 158.743 7.52637C159.962 7.52637 161.042 7.73814 161.981 8.16168C162.927 8.57908 163.68 9.17142 164.241 9.93871C164.802 10.6999 165.121 11.5899 165.2 12.6089H161.815C161.678 11.9275 161.352 11.3597 160.836 10.9055C160.328 10.4451 159.646 10.2149 158.792 10.2149C158.068 10.2149 157.432 10.3991 156.884 10.7674C156.336 11.1295 155.909 11.6513 155.602 12.3326C155.302 13.014 155.152 13.8304 155.152 14.7818C155.152 15.7455 155.302 16.5742 155.602 17.2678C155.902 17.9553 156.323 18.4862 156.864 18.8607C157.412 19.229 158.055 19.4131 158.792 19.4131C159.313 19.4131 159.78 19.321 160.191 19.1369C160.608 18.9466 160.957 18.6735 161.237 18.3174C161.518 17.9614 161.71 17.5287 161.815 17.0192H165.2C165.115 18.0197 164.802 18.9067 164.261 19.6801C163.719 20.4474 162.982 21.049 162.05 21.4848C161.117 21.9145 160.021 22.1293 158.762 22.1293Z" fill="#A4A4AA"/>
</svg>
