<svg width="236" height="38" viewBox="0 0 236 38" fill="none" xmlns="http://www.w3.org/2000/svg">
<path d="M114.035 9.54343V13.0961L116.264 13.8972V28.5956H121.175V9.54343H114.035ZM118.319 1.39307C116.752 1.39307 115.568 2.71666 115.568 4.21436C115.568 5.7469 116.752 7.03557 118.319 7.03557C119.852 7.03557 121.175 5.7469 121.175 4.21436C121.175 2.71666 119.886 1.39307 118.319 1.39307Z" fill="#0A2B2D"/>
<path d="M122.986 9.54362V28.5958H128.106V18.0771C128.106 15.9176 129.465 13.9671 131.937 13.9671C133.818 13.9671 135.281 15.1513 135.281 17.3805V28.5958H140.366V17.1366C140.366 11.0761 136.744 9.19531 133.261 9.19531C129.221 9.19531 127.723 12.0862 127.723 12.0862L126.922 9.54362H122.986V9.54362Z" fill="#0A2B2D"/>
<path d="M218.239 2.36035V28.5887H223.359V18.07C223.359 15.9105 224.717 13.96 227.19 13.96C229.071 13.96 230.534 15.1442 230.534 17.3734V28.5887H235.619V17.1295C235.619 11.069 231.997 9.18822 228.514 9.18822C224.473 9.18822 222.976 12.0791 222.976 12.0791V2.36035H218.239Z" fill="#0A2B2D"/>
<path d="M141.342 19.3045C141.342 25.1212 145.557 29.0221 151.269 29.0221C153.811 29.0221 156.528 28.4649 158.409 27.3851L156.737 23.6931C155.483 24.2504 153.533 24.8425 151.373 24.8425C149.109 24.8425 146.776 23.8324 146.567 21.1156H159.314C159.314 21.1156 159.489 20.21 159.489 18.9213C159.489 13.8709 156.633 9.27331 150.781 9.27331C145.139 9.20364 141.342 13.453 141.342 19.3045ZM146.497 17.5281C146.985 14.9506 148.691 13.5923 151.06 13.5923C153.846 13.5923 154.647 15.4383 154.752 17.5281H146.497Z" fill="#0A2B2D"/>
<path d="M77.3928 9.54346L84.7769 28.4912C84.533 29.2226 84.1499 29.954 83.3836 29.954C82.5477 29.9889 80.9804 29.7451 80.3186 29.6406L79.4479 34.2382C80.8759 34.691 82.2343 34.8651 83.523 34.8651C86.6229 34.8651 88.0161 33.3674 89.4442 29.8495L97.5945 9.57824H92.3003L87.4936 23.3362H87.3891L82.7219 9.57824H77.3928V9.54346Z" fill="#00CCD6"/>
<path fill-rule="evenodd" clip-rule="evenodd" d="M99.7195 9.78712C100.799 9.36916 102.018 9.16016 103.377 9.16016C104.108 9.16016 105.292 9.22985 105.989 9.54332H113.025V13.1657L110.656 13.7578C110.935 14.2454 111.353 15.0465 111.353 16.4049C111.353 19.8879 108.671 22.5699 103.69 22.5699C102.75 22.5699 101.078 22.4305 99.9285 21.8733C99.615 22.0474 99.2667 22.4654 99.2667 22.8485C99.2667 24.4855 102.367 24.4159 106.094 24.4159C111.318 24.4159 112.363 26.9237 112.363 29.2921C112.363 33.9594 107.069 34.7954 103.969 34.7954C100.904 34.7954 95.2612 34.2032 95.2612 29.7797C95.2612 27.5854 96.5848 26.854 97.3162 26.4012C95.9926 25.7743 95.2612 24.59 95.2612 23.162C95.2612 21.5249 96.2016 20.5845 97.2465 19.9227C96.8634 19.5048 96.5151 19.0869 96.2365 18.5992L99.5454 10.3096C99.5802 10.1703 99.6151 10.1702 99.6499 10.0309C99.7196 9.99609 99.7195 9.89161 99.7195 9.78712ZM106.442 28.0731C107.556 28.0731 108.114 28.5955 108.114 29.2921C108.114 30.9292 105.327 30.9988 104.178 30.9988C101.914 30.9988 99.5802 30.9292 99.5802 29.2225C99.5802 28.6304 99.9285 28.0034 100.381 27.7944C101.322 28.0034 102.401 28.0731 106.442 28.0731ZM103.586 12.8173C105.675 12.8173 106.79 14.2105 106.79 15.9172C106.79 17.8677 105.467 19.1913 103.551 19.1913C101.496 19.1913 100.172 17.7981 100.172 15.9521C100.138 14.2106 101.426 12.8173 103.586 12.8173Z" fill="#0A2B2D"/>
<path d="M50.3993 13.5836C53.0813 13.5836 55.2756 15.7431 55.2756 19.0868C55.2756 22.3609 53.0464 24.59 50.3993 24.59C47.2994 24.59 45.3489 22.326 45.3489 19.0868C45.3489 15.5689 47.6826 13.5836 50.3993 13.5836ZM51.2701 9.16016C49.4937 9.16016 47.1949 10.1702 45.8714 12.1207L45.0006 9.50846H40.9951V34.7954H45.8714V26.1574C47.1253 28.2472 49.9466 28.9438 51.2353 28.9438C57.1216 28.9438 60.2563 24.3114 60.2563 19.1217C60.2563 13.4792 56.8778 9.16016 51.2701 9.16016Z" fill="#00CCD6"/>
<path d="M62.4163 10.7279L63.3219 14.2805C64.7499 13.9671 67.397 13.5491 69.0689 13.5491C70.6014 13.5491 72.5171 13.9323 72.5171 16.6839V17.2411C71.298 17.1018 69.8351 16.9973 68.5812 16.9973C64.2274 16.9973 60.7444 18.9827 60.7444 23.0926C60.7444 27.133 64.123 29.2925 67.606 29.2925C70.2183 29.2925 72.4475 27.8992 73.5272 26.0184V26.4364C73.5272 28.5262 75.5474 28.9442 76.7316 28.9442C78.09 28.9442 79.6225 28.4217 79.7618 28.3172V24.3117C78.9955 24.3814 78.3686 24.4162 78.0899 24.4162C77.5327 24.4162 77.2888 24.2768 77.2888 23.7544V15.8479C77.2888 11.7031 74.6069 9.50879 69.9048 9.50879C67.2925 9.50879 64.123 10.1706 62.4163 10.7279ZM72.4823 20.5152V22.4309C72.4823 24.2073 70.2879 25.4959 68.4071 25.4959C66.77 25.4959 65.3072 24.5555 65.3072 22.8488C65.3072 20.6197 67.815 20.2017 69.452 20.2017C70.4272 20.2365 71.5419 20.3759 72.4823 20.5152Z" fill="#00CCD6"/>
<path d="M16.4052 0L32.7754 9.50872V28.4913L16.4052 38L4.49309 31.1036L0 28.5261V28.4913V26.6801V26.6453V9.47385C5.46837 6.33912 10.9368 3.16957 16.4052 0ZM15.6388 34.1338L16.3703 34.5517L29.78 26.7846V25.9139C25.0779 28.6655 20.3758 31.3822 15.6388 34.1338ZM11.9468 31.9743L12.6782 32.3923L28.3171 23.3364L27.5857 22.9184C22.3611 25.9138 17.1366 28.9441 11.9468 31.9743ZM8.22001 29.8149L8.9514 30.2328L24.5903 21.1769L23.8588 20.759C18.6343 23.7544 13.4097 26.7846 8.22001 29.8149ZM18.6691 19.4354L16.4052 20.759H16.3703L4.38866 27.6205L5.22456 28.1081L20.8634 19.0522L20.132 18.6343C19.6444 18.8781 19.1568 19.1567 18.6691 19.4354ZM2.99545 22.4656L5.15492 23.7195L5.92117 23.3016L2.99545 21.5948C2.99545 21.9083 2.99545 22.187 2.99545 22.4656ZM2.99545 18.1467L8.91662 21.5601L9.68287 21.142L3.03023 17.2759C2.9954 17.5894 2.99545 17.868 2.99545 18.1467ZM23.0577 16.8231L29.8149 20.7241V19.8533L23.824 16.3703C23.5453 16.5444 23.3015 16.6838 23.0577 16.8231ZM2.99545 13.8277L12.6435 19.4354L13.4097 19.0174L2.99545 12.9569C2.99545 13.2355 2.99545 13.549 2.99545 13.8277ZM16.3006 16.4399L5.22456 9.96153L4.49309 10.3795L16.3703 17.2759L17.1365 16.8231L28.2126 10.3098L27.5509 9.92666C23.824 12.0861 20.0623 14.2804 16.3006 16.4399ZM26.7845 14.6636L29.8149 16.4399V15.5692L27.516 14.2457C27.2722 14.385 27.0284 14.5243 26.7845 14.6636ZM8.18514 8.22001L16.3006 12.9569L17.1018 12.5042L8.9514 7.7672C8.70758 7.94135 8.46379 8.08069 8.18514 8.22001ZM11.912 6.06054L20.0971 10.7974L20.8286 10.3795L12.6435 5.64251C12.4345 5.78183 12.1906 5.92122 11.912 6.06054ZM15.6388 3.90099L23.824 8.63796L24.5903 8.22001L16.4052 3.48304C16.1613 3.62236 15.9175 3.76167 15.6388 3.90099Z" fill="#00CCD6"/>
<path d="M179.463 19.3045C179.463 25.1212 183.678 29.0221 189.39 29.0221C191.933 29.0221 194.649 28.4649 196.53 27.3851L194.858 23.6931C193.605 24.2504 191.654 24.8425 189.495 24.8425C187.231 24.8425 184.897 23.8324 184.688 21.1156H197.436C197.436 21.1156 197.61 20.21 197.61 18.9213C197.61 13.8709 194.754 9.27331 188.902 9.27331C183.26 9.20364 179.463 13.453 179.463 19.3045ZM184.618 17.5281C185.106 14.9506 186.813 13.5923 189.181 13.5923C191.967 13.5923 192.769 15.4383 192.873 17.5281H184.618Z" fill="#0A2B2D"/>
<path d="M174.195 4.3833H169.223V9.00993H166.482V12.9517H169.223V23.477C169.214 24.7146 169.481 25.7636 170.037 26.6107L170.037 26.6113L170.038 26.612C170.598 27.4519 171.355 28.0733 172.306 28.4745L172.307 28.4748L172.308 28.4751C173.252 28.8652 174.309 29.0407 175.474 29.0065C176.128 28.9895 176.687 28.93 177.149 28.8254C177.604 28.7243 177.961 28.6301 178.215 28.5424L179.969 27.8594L178.325 24.2347L177.325 24.5816C177.208 24.6127 177.031 24.6491 176.79 24.6907L176.79 24.6908L176.789 24.6909C176.569 24.7303 176.321 24.7505 176.047 24.7505C175.691 24.7505 175.373 24.6953 175.09 24.5881C174.83 24.4898 174.614 24.307 174.443 24.0251C174.285 23.7438 174.195 23.3174 174.195 22.7234V12.9517H178.005V9.00993H174.195V4.3833Z" fill="#0A2B2D"/>
<path d="M208.033 28.9972C206.068 28.9972 204.38 28.591 202.97 27.7786C201.568 26.9663 200.487 25.8442 199.726 24.4125C198.974 22.9728 198.598 21.3159 198.598 19.4418C198.598 17.5597 198.983 15.8988 199.752 14.459C200.521 13.0112 201.606 11.8852 203.008 11.0809C204.418 10.2685 206.085 9.8623 208.008 9.8623C209.606 9.8623 211.02 10.1398 212.251 10.6948C213.49 11.2417 214.477 12.0179 215.212 13.0233C215.947 14.0207 216.366 15.1869 216.469 16.5221H212.033C211.854 15.6293 211.426 14.8853 210.751 14.2901C210.084 13.6869 209.191 13.3852 208.072 13.3852C207.123 13.3852 206.29 13.6265 205.572 14.1091C204.854 14.5837 204.294 15.2674 203.893 16.1602C203.499 17.053 203.303 18.1227 203.303 19.3694C203.303 20.6322 203.499 21.718 203.893 22.6269C204.286 23.5278 204.837 24.2235 205.546 24.7142C206.264 25.1968 207.106 25.438 208.072 25.438C208.756 25.438 209.367 25.3174 209.905 25.0761C210.452 24.8268 210.909 24.4688 211.277 24.0023C211.644 23.5358 211.896 22.9688 212.033 22.3012H216.469C216.358 23.6122 215.947 24.7745 215.238 25.7879C214.529 26.7933 213.563 27.5816 212.341 28.1526C211.119 28.7157 209.683 28.9972 208.033 28.9972Z" fill="#0A2B2D"/>
</svg>
