<?xml version="1.0" encoding="UTF-8"?> <svg xmlns="http://www.w3.org/2000/svg" width="170" height="170" viewBox="0 0 170 170" fill="none"> <g clip-path="url(#clip0_19_624)"> <g filter="url(#filter0_d_19_624)"> <rect x="23" y="3" width="124" height="124" rx="62" fill="url(#paint0_linear_19_624)"></rect> </g> <path d="M84.4646 58.2057C83.7496 57.4907 82.5873 57.487 81.8686 58.202L75.8333 64.241L73.4646 61.8687C72.7496 61.1537 71.5873 61.1537 70.8723 61.8687C70.1573 62.5837 70.1573 63.746 70.8723 64.461L74.5389 68.1277C74.8946 68.487 75.3639 68.6667 75.8333 68.6667C76.3026 68.6667 76.7719 68.487 77.1313 68.1314L84.4646 60.798C85.1796 60.083 85.1796 58.9207 84.4646 58.2057Z" fill="white"></path> <path d="M84.4646 72.8723C83.7496 72.1573 82.5873 72.1536 81.8686 72.8686L75.8333 78.9076L73.4646 76.539C72.7496 75.824 71.5873 75.824 70.8723 76.539C70.1573 77.254 70.1573 78.4163 70.8723 79.1313L74.5389 82.798C74.8946 83.1536 75.3639 83.3333 75.8333 83.3333C76.3026 83.3333 76.7719 83.1536 77.1313 82.798L84.4646 75.4646C85.1796 74.7496 85.1796 73.5873 84.4646 72.8723Z" fill="white"></path> <path d="M97.8333 61.3334H90.5C89.488 61.3334 88.6667 62.1547 88.6667 63.1667C88.6667 64.1787 89.488 65 90.5 65H97.8333C98.8453 65 99.6667 64.1787 99.6667 63.1667C99.6667 62.1547 98.8453 61.3334 97.8333 61.3334Z" fill="white"></path> <path d="M97.8333 76H90.5C89.488 76 88.6667 76.8213 88.6667 77.8333C88.6667 78.8453 89.488 79.6667 90.5 79.6667H97.8333C98.8453 79.6667 99.6667 78.8453 99.6667 77.8333C99.6667 76.8213 98.8453 76 97.8333 76Z" fill="white"></path> <path d="M103.333 43H96V41.1667C96 40.1547 95.1787 39.3334 94.1667 39.3334H90.1883C89.4293 37.1994 87.3907 35.6667 85 35.6667C82.6093 35.6667 80.5707 37.1994 79.8117 39.3334H75.8333C74.8213 39.3334 74 40.1547 74 41.1667V43H66.6667C64.6463 43 63 44.6464 63 46.6667V90.6667C63 92.687 64.6463 94.3334 66.6667 94.3334H103.333C105.354 94.3334 107 92.687 107 90.6667V46.6667C107 44.6464 105.354 43 103.333 43ZM77.6667 43H81.3333C82.3453 43 83.1667 42.1787 83.1667 41.1667C83.1667 40.1547 83.988 39.3334 85 39.3334C86.012 39.3334 86.8333 40.1547 86.8333 41.1667C86.8333 42.1787 87.6547 43 88.6667 43H92.3333V46.6667H77.6667V43ZM103.333 90.6667H66.6667V46.6667H74V48.5C74 49.512 74.8213 50.3334 75.8333 50.3334H94.1667C95.1787 50.3334 96 49.512 96 48.5V46.6667H103.333V90.6667Z" fill="white"></path> </g> <defs> <filter id="filter0_d_19_624" x="-9" y="-13" width="188" height="188" filterUnits="userSpaceOnUse" color-interpolation-filters="sRGB"> <feFlood flood-opacity="0" result="BackgroundImageFix"></feFlood> <feColorMatrix in="SourceAlpha" type="matrix" values="0 0 0 0 0 0 0 0 0 0 0 0 0 0 0 0 0 0 127 0" result="hardAlpha"></feColorMatrix> <feOffset dy="16"></feOffset> <feGaussianBlur stdDeviation="16"></feGaussianBlur> <feColorMatrix type="matrix" values="0 0 0 0 0 0 0 0 0 0.858824 0 0 0 0 0.898039 0 0 0 0.3 0"></feColorMatrix> <feBlend mode="normal" in2="BackgroundImageFix" result="effect1_dropShadow_19_624"></feBlend> <feBlend mode="normal" in="SourceGraphic" in2="effect1_dropShadow_19_624" result="shape"></feBlend> </filter> <linearGradient id="paint0_linear_19_624" x1="85" y1="3" x2="85" y2="127" gradientUnits="userSpaceOnUse"> <stop stop-color="#553BA8"></stop> <stop offset="1" stop-color="#E333ED"></stop> </linearGradient> <clipPath id="clip0_19_624"> <rect width="170" height="170" fill="white"></rect> </clipPath> </defs> </svg> 