<?xml version="1.0" encoding="UTF-8"?> <svg xmlns="http://www.w3.org/2000/svg" width="560" height="350" viewBox="0 0 560 350" fill="none"> <rect width="1.67077" height="35.6985" transform="matrix(0.798006 0.60265 0.64419 -0.764866 255.18 284.473)" fill="url(#paint0_linear_33_743)"></rect> <path d="M227.811 295.382L230.034 300L255.226 271.234L252.262 266.323L227.811 295.382Z" fill="url(#paint1_linear_33_743)"></path> <path d="M287.039 268.926L288.121 271.235L300.376 256.852L298.934 254.396L287.039 268.926Z" fill="url(#paint2_linear_33_743)"></path> <path d="M339.645 124.748L340.726 127.057L360.02 106.009L358.578 103.554L339.645 124.748Z" fill="url(#paint3_linear_33_743)"></path> <path d="M353.722 139.481L354.803 141.79L362.944 133.371L361.502 130.915L353.722 139.481Z" fill="url(#paint4_linear_33_743)"></path> <path d="M209.916 163.813L281.731 165.83L276.054 175.141L211.48 173.535L192.015 205.459L360.394 208.836L353.906 219.477L177.476 217.019L209.916 163.813Z" fill="url(#paint5_linear_33_743)"></path> <path d="M163.921 190.1L177.475 217.019L209.916 163.813L195.55 138.224L163.921 190.1Z" fill="url(#paint6_linear_33_743)"></path> <path d="M360.395 208.836L192.016 205.459L207.425 180.186L315.444 184.261L244.588 63.9411L274.362 64.2572L360.395 208.836Z" fill="url(#paint7_linear_33_743)"></path> <path d="M195.55 138.224L209.915 163.812L281.73 165.83L253 114.652L222.632 112.238L237.591 139.925L195.55 138.224Z" fill="url(#paint8_linear_33_743)"></path> <path d="M225.622 139.589L237.591 139.925L222.632 112.238L242.096 80.3143L302.075 183.812L315.444 184.261L244.588 63.9409L213.769 114.487L225.622 139.589Z" fill="url(#paint9_linear_33_743)"></path> <path d="M242.096 80.314L222.632 112.238L253 114.652L257.866 106.671L242.096 80.314Z" fill="url(#paint10_linear_33_743)"></path> <path d="M332.039 179.117L293.426 122.199L224.348 206.631L260.331 266.763L332.039 179.117Z" fill="url(#paint11_linear_33_743)"></path> <path d="M292.157 123.749L299.159 115.191C303.234 110.21 310.121 108.153 316.457 109.995C318.586 110.622 320.267 111.892 321.348 113.509L360.396 169.319C359.312 167.85 357.711 166.676 355.7 166.098C349.382 164.233 342.476 166.313 338.401 171.294L331.553 179.665L331.4 179.852" fill="url(#paint12_linear_33_743)"></path> <path d="M355.819 166.125C361.841 167.894 364.18 174.795 360.347 179.48L350.114 191.638L338.194 171.542L338.462 171.206C342.524 166.241 349.467 164.225 355.819 166.125Z" fill="url(#paint13_linear_33_743)"></path> <path d="M297.413 123.664L324.657 169.335L317.769 177.796L290.539 132.109L297.413 123.664Z" fill="#9BFFEC"></path> <path d="M275.501 149.636L302.745 195.307L295.858 203.768L268.627 158.081L275.501 149.636Z" fill="#46F3EE"></path> <path d="M255.058 175.432L282.302 221.103L275.415 229.563L248.184 183.876L255.058 175.432Z" fill="#45C6FB"></path> <path d="M287.934 134.705L303.373 160.992L299.499 165.847L284.067 139.55L287.934 134.705Z" fill="#9BFFEC"></path> <path d="M266.022 160.677L281.461 186.965L277.587 191.82L262.156 165.522L266.022 160.677Z" fill="#46F3EE"></path> <path d="M245.58 186.472L261.019 212.76L257.145 217.615L241.714 191.317L245.58 186.472Z" fill="#45C6FB"></path> <path d="M304.081 232.102L307.024 238.26L340.386 199.906L336.461 193.357L304.081 232.102Z" fill="url(#paint14_linear_33_743)"></path> <path d="M240.208 256.9L205.761 197.633L177.525 228.896L209.118 291.2L240.208 256.9Z" fill="url(#paint15_linear_33_743)"></path> <path d="M199.152 214.295L223.555 261.384L216.161 269.453L191.773 222.348L199.152 214.295Z" fill="#69FFDB"></path> <path d="M189.014 224.797L202.817 251.888L198.653 256.522L184.857 229.422L189.014 224.797Z" fill="#69FFDB"></path> <path d="M204.385 199.098L211.984 191.01C216.406 186.302 223.424 184.692 229.614 186.937C231.693 187.699 233.278 189.074 234.242 190.756L269.202 248.946C268.226 247.411 266.712 246.136 264.747 245.431C258.578 243.164 251.539 244.796 247.117 249.504L239.684 257.416L239.518 257.593" fill="url(#paint16_linear_33_743)"></path> <path d="M264.865 245.465C270.746 247.616 272.586 254.652 268.426 259.08L260.354 267.672L247.184 249.475L247.205 249.453C251.613 244.76 258.663 243.161 264.865 245.465Z" fill="url(#paint17_linear_33_743)"></path> <g opacity="0.3" filter="url(#filter0_f_33_743)"> <path d="M351.469 55.9264L344.743 51.9091L311.227 66.2964L336.809 80.4143L337.209 74.3187L324.889 67.1002L351.469 55.9264Z" fill="url(#paint18_linear_33_743)"></path> <path d="M351.468 55.9247L324.888 67.0999L330.604 70.4329L344.699 64.6429L343.068 89.5227L349.446 86.7757L351.468 55.9247Z" fill="url(#paint19_linear_33_743)"></path> <path d="M344.699 64.6436L337.651 67.5387L336.807 80.414L311.225 66.2975L310.826 72.3931L343.068 89.5235L344.699 64.6436Z" fill="url(#paint20_linear_33_743)"></path> </g> <g opacity="0.4" filter="url(#filter1_f_33_743)"> <path d="M356.016 259.154L352.81 254.616L326.126 254.798L338.683 271.288L340.844 267.361L334.928 259.142L356.016 259.154Z" fill="url(#paint21_linear_33_743)"></path> <path d="M356.016 259.154L334.928 259.142L337.678 262.945L348.818 263.042L339.996 279.07L345.077 279.03L356.016 259.154Z" fill="url(#paint22_linear_33_743)"></path> <path d="M348.818 263.041L343.248 262.993L338.683 271.288L326.126 254.798L323.964 258.725L339.996 279.07L348.818 263.041Z" fill="url(#paint23_linear_33_743)"></path> </g> <g opacity="0.6" filter="url(#filter2_f_33_743)"> <path d="M182.42 98.2849L178.292 97.8412L165.971 111.821L181.395 112.962L180.121 110.007L172.593 109.26L182.42 98.2849Z" fill="url(#paint24_linear_33_743)"></path> <path d="M182.42 98.2858L172.592 109.261L176.081 109.6L181.325 103.844L186.525 115.903L188.868 113.238L182.42 98.2858Z" fill="url(#paint25_linear_33_743)"></path> <path d="M181.325 103.844L178.703 106.722L181.394 112.962L165.97 111.821L167.244 114.776L186.525 115.902L181.325 103.844Z" fill="url(#paint26_linear_33_743)"></path> </g> <defs> <filter id="filter0_f_33_743" x="302.826" y="43.9092" width="56.6434" height="53.6143" filterUnits="userSpaceOnUse" color-interpolation-filters="sRGB"> <feFlood flood-opacity="0" result="BackgroundImageFix"></feFlood> <feBlend mode="normal" in="SourceGraphic" in2="BackgroundImageFix" result="shape"></feBlend> <feGaussianBlur stdDeviation="4" result="effect1_foregroundBlur_33_743"></feGaussianBlur> </filter> <filter id="filter1_f_33_743" x="308.964" y="239.616" width="62.0517" height="54.4546" filterUnits="userSpaceOnUse" color-interpolation-filters="sRGB"> <feFlood flood-opacity="0" result="BackgroundImageFix"></feFlood> <feBlend mode="normal" in="SourceGraphic" in2="BackgroundImageFix" result="shape"></feBlend> <feGaussianBlur stdDeviation="7.5" result="effect1_foregroundBlur_33_743"></feGaussianBlur> </filter> <filter id="filter2_f_33_743" x="150.97" y="82.8413" width="52.8977" height="48.0615" filterUnits="userSpaceOnUse" color-interpolation-filters="sRGB"> <feFlood flood-opacity="0" result="BackgroundImageFix"></feFlood> <feBlend mode="normal" in="SourceGraphic" in2="BackgroundImageFix" result="shape"></feBlend> <feGaussianBlur stdDeviation="7.5" result="effect1_foregroundBlur_33_743"></feGaussianBlur> </filter> <linearGradient id="paint0_linear_33_743" x1="1.48353" y1="-2.55839" x2="-3.15193" y2="-2.14712" gradientUnits="userSpaceOnUse"> <stop stop-color="#3763FF"></stop> <stop offset="1" stop-color="#37FCD0"></stop> </linearGradient> <linearGradient id="paint1_linear_33_743" x1="229.872" y1="300.139" x2="221.984" y2="288.704" gradientUnits="userSpaceOnUse"> <stop stop-color="#3763FF"></stop> <stop offset="1" stop-color="#37FCD0"></stop> </linearGradient> <linearGradient id="paint2_linear_33_743" x1="288.042" y1="271.305" x2="284.06" y2="265.689" gradientUnits="userSpaceOnUse"> <stop stop-color="#3763FF"></stop> <stop offset="1" stop-color="#37FCD0"></stop> </linearGradient> <linearGradient id="paint3_linear_33_743" x1="347.686" y1="120.462" x2="343.704" y2="114.846" gradientUnits="userSpaceOnUse"> <stop stop-color="#3763FF"></stop> <stop offset="1" stop-color="#37FCD0"></stop> </linearGradient> <linearGradient id="paint4_linear_33_743" x1="361.763" y1="135.194" x2="357.782" y2="129.579" gradientUnits="userSpaceOnUse"> <stop stop-color="#3763FF"></stop> <stop offset="1" stop-color="#37FCD0"></stop> </linearGradient> <linearGradient id="paint5_linear_33_743" x1="291.127" y1="108.287" x2="275.447" y2="245.425" gradientUnits="userSpaceOnUse"> <stop stop-color="#00DBE5"></stop> <stop offset="1" stop-color="#9C4EFF"></stop> </linearGradient> <linearGradient id="paint6_linear_33_743" x1="206.788" y1="144.368" x2="175.014" y2="202.487" gradientUnits="userSpaceOnUse"> <stop stop-color="#00DBE5"></stop> <stop offset="1" stop-color="#9C4EFF"></stop> </linearGradient> <linearGradient id="paint7_linear_33_743" x1="393.944" y1="116.287" x2="212.471" y2="241.041" gradientUnits="userSpaceOnUse"> <stop stop-color="#3763FF"></stop> <stop offset="1" stop-color="#37FCD0"></stop> </linearGradient> <linearGradient id="paint8_linear_33_743" x1="259.321" y1="118.108" x2="233.266" y2="165.765" gradientUnits="userSpaceOnUse"> <stop stop-color="#00DBE5"></stop> <stop offset="1" stop-color="#9C4EFF"></stop> </linearGradient> <linearGradient id="paint9_linear_33_743" x1="260.158" y1="51.2035" x2="327.187" y2="152.269" gradientUnits="userSpaceOnUse"> <stop stop-color="#3763FF"></stop> <stop offset="1" stop-color="#37FCD0"></stop> </linearGradient> <linearGradient id="paint10_linear_33_743" x1="259.492" y1="85.27" x2="223.157" y2="109.031" gradientUnits="userSpaceOnUse"> <stop stop-color="#3763FF"></stop> <stop offset="1" stop-color="#37FCD0"></stop> </linearGradient> <linearGradient id="paint11_linear_33_743" x1="300.084" y1="147.049" x2="222.461" y2="212.049" gradientUnits="userSpaceOnUse"> <stop stop-color="#37FFCF"></stop> <stop offset="1" stop-color="#377BFF"></stop> </linearGradient> <linearGradient id="paint12_linear_33_743" x1="311.861" y1="134.761" x2="353.777" y2="117.435" gradientUnits="userSpaceOnUse"> <stop stop-color="#37FFCF"></stop> <stop offset="1" stop-color="#00B2FF"></stop> </linearGradient> <linearGradient id="paint13_linear_33_743" x1="327.478" y1="178.161" x2="370.733" y2="185.972" gradientUnits="userSpaceOnUse"> <stop stop-color="#00DBE5"></stop> <stop offset="1" stop-color="#9C4EFF"></stop> </linearGradient> <linearGradient id="paint14_linear_33_743" x1="306.809" y1="238.446" x2="296.267" y2="223.265" gradientUnits="userSpaceOnUse"> <stop stop-color="#3763FF"></stop> <stop offset="1" stop-color="#37FCD0"></stop> </linearGradient> <linearGradient id="paint15_linear_33_743" x1="210.624" y1="222.853" x2="128.416" y2="282.571" gradientUnits="userSpaceOnUse"> <stop stop-color="#37FFCF"></stop> <stop offset="1" stop-color="#377BFF"></stop> </linearGradient> <linearGradient id="paint16_linear_33_743" x1="223.254" y1="211.351" x2="266.395" y2="196.997" gradientUnits="userSpaceOnUse"> <stop stop-color="#37FFCF"></stop> <stop offset="1" stop-color="#00B2FF"></stop> </linearGradient> <linearGradient id="paint17_linear_33_743" x1="279.079" y1="256.688" x2="236.192" y2="221.084" gradientUnits="userSpaceOnUse"> <stop stop-color="#002BC1"></stop> <stop offset="1" stop-color="#37FCD0"></stop> </linearGradient> <linearGradient id="paint18_linear_33_743" x1="307.791" y1="75.4602" x2="347.933" y2="50.2416" gradientUnits="userSpaceOnUse"> <stop stop-color="#3763FF"></stop> <stop offset="1" stop-color="#37FCD0"></stop> </linearGradient> <linearGradient id="paint19_linear_33_743" x1="359.625" y1="72.3261" x2="329.877" y2="56.6272" gradientUnits="userSpaceOnUse"> <stop stop-color="#3763FF"></stop> <stop offset="1" stop-color="#37FCD0"></stop> </linearGradient> <linearGradient id="paint20_linear_33_743" x1="310.646" y1="75.1299" x2="343.869" y2="77.3078" gradientUnits="userSpaceOnUse"> <stop stop-color="#37FFCF"></stop> <stop offset="1" stop-color="#377BFF"></stop> </linearGradient> <linearGradient id="paint21_linear_33_743" x1="320.998" y1="259.911" x2="355.59" y2="255.573" gradientUnits="userSpaceOnUse"> <stop stop-color="#3763FF"></stop> <stop offset="1" stop-color="#37FCD0"></stop> </linearGradient> <linearGradient id="paint22_linear_33_743" x1="356.317" y1="272.296" x2="341.642" y2="253.479" gradientUnits="userSpaceOnUse"> <stop stop-color="#3763FF"></stop> <stop offset="1" stop-color="#37FCD0"></stop> </linearGradient> <linearGradient id="paint23_linear_33_743" x1="322.994" y1="260.489" x2="343.893" y2="271.99" gradientUnits="userSpaceOnUse"> <stop stop-color="#37FFCF"></stop> <stop offset="1" stop-color="#377BFF"></stop> </linearGradient> <linearGradient id="paint24_linear_33_743" x1="166.552" y1="116.872" x2="179.395" y2="96.3715" gradientUnits="userSpaceOnUse"> <stop stop-color="#3763FF"></stop> <stop offset="1" stop-color="#37FCD0"></stop> </linearGradient> <linearGradient id="paint25_linear_33_743" x1="190.192" y1="104.25" x2="172.417" y2="103.992" gradientUnits="userSpaceOnUse"> <stop stop-color="#3763FF"></stop> <stop offset="1" stop-color="#37FCD0"></stop> </linearGradient> <linearGradient id="paint26_linear_33_743" x1="167.816" y1="116.102" x2="183.664" y2="109.268" gradientUnits="userSpaceOnUse"> <stop stop-color="#37FFCF"></stop> <stop offset="1" stop-color="#377BFF"></stop> </linearGradient> </defs> </svg> 