<?xml version="1.0" encoding="UTF-8"?> <svg xmlns="http://www.w3.org/2000/svg" width="706" height="536" viewBox="0 0 706 536" fill="none"> <g filter="url(#filter0_f_1_35)"> <rect x="568.91" y="239" width="53" height="53" transform="rotate(34.3564 568.91 239)" fill="url(#paint0_linear_1_35)"></rect> </g> <g opacity="0.5" filter="url(#filter1_f_1_35)"> <rect x="62" y="352" width="147" height="147" transform="rotate(-15 62 352)" fill="url(#paint1_linear_1_35)"></rect> </g> <path d="M180.411 233.268L175.811 216.368L279.111 113.068L283.711 129.968L180.411 233.268Z" fill="url(#paint2_linear_1_35)"></path> <path d="M373.811 426.768L390.811 431.268L494.111 327.968L477.111 323.468L373.811 426.768Z" fill="url(#paint3_linear_1_35)"></path> <path fill-rule="evenodd" clip-rule="evenodd" d="M175.811 216.468L158.811 211.968L274.011 96.7685L287.011 83.7685L341.711 287.868L328.711 300.868L278.611 113.668L175.811 216.468Z" fill="url(#paint4_linear_1_35)"></path> <path d="M229.611 399.168L225.011 382.268L326.411 280.868L330.911 297.868L229.611 399.168Z" fill="url(#paint5_linear_1_35)"></path> <path d="M208.11 377.568L225.01 382.168L326.51 280.668L309.51 276.168L208.11 377.568Z" fill="url(#paint6_linear_1_35)"></path> <path d="M212.711 394.568L170.011 235.668L186.311 239.268L224.911 382.168L212.711 394.568Z" fill="url(#paint7_linear_1_35)"></path> <path d="M477.511 151.268L307.811 105.668L312.411 122.368L465.111 163.668L477.511 151.268Z" fill="url(#paint8_linear_1_35)"></path> <path d="M212.61 394.568L371.71 437.168L366.41 419.968L225.01 382.168L212.61 394.568Z" fill="url(#paint9_linear_1_35)"></path> <path d="M460.51 146.568L501.41 299.168L484.41 294.568L448.11 159.068L460.51 146.568Z" fill="url(#paint10_linear_1_35)"></path> <path fill-rule="evenodd" clip-rule="evenodd" d="M382.411 439.668L387.011 456.668L200.511 406.668L150.511 220.168L167.511 224.668L212.911 394.168L365.411 435.068L324.311 281.568L341.311 286.068L382.411 439.668Z" fill="url(#paint11_linear_1_35)"></path> <path fill-rule="evenodd" clip-rule="evenodd" d="M306.61 277.768L155.11 237.168L150.61 220.168L319.01 265.468L319.21 265.268L336.91 269.968L287.21 84.5685L303.41 88.8685L353.069 274.014L353.511 273.568L353.715 274.331L506.655 315.324L509.411 312.568L510.406 316.329L523.61 319.868L513.911 329.568L510.91 332.568L399.311 444.168V444.268L386.911 456.668L342.66 291.382L342.61 291.368L341.51 287.268L306.51 277.868L306.61 277.768ZM358.384 291.749L394.711 427.268L493.95 328.029L358.384 291.749Z" fill="url(#paint12_linear_1_35)"></path> <path fill-rule="evenodd" clip-rule="evenodd" d="M460.41 146.768L291.01 101.268L286.51 84.2685L473.11 134.268L477.61 151.068H477.71L519.71 309.268H519.61L522.41 319.669L505.61 315.169L505.51 315.268V315.169L320.91 265.669L320.81 265.768L150.61 220.169L163.01 207.768L333.21 253.368L332.41 254.169L501.21 299.368L460.41 146.768Z" fill="url(#paint13_linear_1_35)"></path> <g clip-path="url(#clip0_1_35)"> <path d="M438.511 59.2L539.111 87.0999L534.811 71.5999L434.211 43.7L438.511 59.2Z" fill="url(#paint14_linear_1_35)"></path> <path d="M547.211 168L519.311 67.3L534.811 71.6L562.711 172.2L547.211 168Z" fill="url(#paint15_linear_1_35)"></path> <path d="M398.71 118.7L394.41 103.2L450.81 46.8L455.11 62.3L398.71 118.7Z" fill="url(#paint16_linear_1_35)"></path> <path d="M487.711 207.7L503.211 212L559.611 155.6L544.111 151.3L487.711 207.7Z" fill="url(#paint17_linear_1_35)"></path> <path d="M408.811 197.6L485.711 218.9L496.811 207.7L420.011 186.4L408.811 197.6Z" fill="url(#paint18_linear_1_35)"></path> <path d="M408.811 197.6L385.211 112.5L396.411 101.3L420.011 186.4L408.811 197.6Z" fill="url(#paint19_linear_1_35)"></path> <path fill-rule="evenodd" clip-rule="evenodd" d="M470.21 136.2L369.61 108.2L376.31 101.6L380.91 97L434.21 43.7L435.41 42.5L445.41 32.5L546.01 60.4L534.81 71.6L481.41 125H481.51L470.21 136.2ZM465.91 120.7L519.31 67.3L449.71 48L396.31 101.4L465.91 120.7Z" fill="url(#paint20_linear_1_35)"></path> <path fill-rule="evenodd" clip-rule="evenodd" d="M482.71 232.5L413.11 213.2L397.61 208.9L393.31 193.3L373.91 123.7L369.61 108.2L382.71 111.8L385.01 112.4L454.71 131.7L470.21 136L474.51 151.5L493.81 221.2L498.11 236.7H498.01L482.71 232.5ZM478.41 217L459.11 147.3L389.41 128L408.81 197.6L478.41 217Z" fill="url(#paint21_linear_1_35)"></path> <path fill-rule="evenodd" clip-rule="evenodd" d="M498.211 236.8L470.211 136.2L481.411 125L545.311 61L545.911 60.4L573.811 161L563.811 171L562.611 172.2L504.711 230.1L498.211 236.8ZM558.411 156.8L539.111 87.1L485.711 140.5L505.111 210.2L558.411 156.8Z" fill="url(#paint22_linear_1_35)"></path> </g> <defs> <filter id="filter0_f_1_35" x="507" y="207" width="137.664" height="137.664" filterUnits="userSpaceOnUse" color-interpolation-filters="sRGB"> <feFlood flood-opacity="0" result="BackgroundImageFix"></feFlood> <feBlend mode="normal" in="SourceGraphic" in2="BackgroundImageFix" result="shape"></feBlend> <feGaussianBlur stdDeviation="16" result="effect1_foregroundBlur_1_35"></feGaussianBlur> </filter> <filter id="filter1_f_1_35" x="25" y="276.954" width="254.038" height="254.037" filterUnits="userSpaceOnUse" color-interpolation-filters="sRGB"> <feFlood flood-opacity="0" result="BackgroundImageFix"></feFlood> <feBlend mode="normal" in="SourceGraphic" in2="BackgroundImageFix" result="shape"></feBlend> <feGaussianBlur stdDeviation="18.5" result="effect1_foregroundBlur_1_35"></feGaussianBlur> </filter> <linearGradient id="paint0_linear_1_35" x1="595.41" y1="300.011" x2="555.214" y2="227.452" gradientUnits="userSpaceOnUse"> <stop stop-color="#FF0CCE"></stop> <stop offset="1" stop-color="#FFDE00"></stop> </linearGradient> <linearGradient id="paint1_linear_1_35" x1="135.5" y1="521.22" x2="24.0123" y2="319.971" gradientUnits="userSpaceOnUse"> <stop stop-color="#FF0CCE"></stop> <stop offset="1" stop-color="#FFDE00"></stop> </linearGradient> <linearGradient id="paint2_linear_1_35" x1="251.054" y1="89.0972" x2="214.611" y2="251.429" gradientUnits="userSpaceOnUse"> <stop stop-color="#37FFCF"></stop> <stop offset="1" stop-color="#377BFF"></stop> </linearGradient> <linearGradient id="paint3_linear_1_35" x1="518.025" y1="356.068" x2="355.693" y2="392.511" gradientUnits="userSpaceOnUse"> <stop stop-color="#37FFCF"></stop> <stop offset="1" stop-color="#377BFF"></stop> </linearGradient> <linearGradient id="paint4_linear_1_35" x1="120.66" y1="208.24" x2="269.21" y2="195.576" gradientUnits="userSpaceOnUse"> <stop stop-color="#00DBE5"></stop> <stop offset="1" stop-color="#9C4EFF"></stop> </linearGradient> <linearGradient id="paint5_linear_1_35" x1="299.534" y1="256.839" x2="260.769" y2="417.135" gradientUnits="userSpaceOnUse"> <stop stop-color="#37FFCF"></stop> <stop offset="1" stop-color="#377BFF"></stop> </linearGradient> <linearGradient id="paint6_linear_1_35" x1="216.572" y1="379.87" x2="248.736" y2="259.828" gradientUnits="userSpaceOnUse"> <stop stop-color="#37FFCF"></stop> <stop offset="1" stop-color="#377BFF"></stop> </linearGradient> <linearGradient id="paint7_linear_1_35" x1="209.059" y1="310.175" x2="170.011" y2="315.118" gradientUnits="userSpaceOnUse"> <stop stop-color="#37FFCF"></stop> <stop offset="1" stop-color="#377BFF"></stop> </linearGradient> <linearGradient id="paint8_linear_1_35" x1="262.911" y1="93.9741" x2="428.021" y2="147.529" gradientUnits="userSpaceOnUse"> <stop stop-color="#00DBE5"></stop> <stop offset="1" stop-color="#9C4EFF"></stop> </linearGradient> <linearGradient id="paint9_linear_1_35" x1="202.635" y1="365.033" x2="373.293" y2="448.117" gradientUnits="userSpaceOnUse"> <stop stop-color="#37FFCF"></stop> <stop offset="1" stop-color="#377BFF"></stop> </linearGradient> <linearGradient id="paint10_linear_1_35" x1="514.864" y1="338.496" x2="455.316" y2="172.82" gradientUnits="userSpaceOnUse"> <stop stop-color="#00DBE5"></stop> <stop offset="1" stop-color="#9C4EFF"></stop> </linearGradient> <linearGradient id="paint11_linear_1_35" x1="171.512" y1="314.935" x2="388.599" y2="367.359" gradientUnits="userSpaceOnUse"> <stop stop-color="#00DBE5"></stop> <stop offset="1" stop-color="#9C4EFF"></stop> </linearGradient> <linearGradient id="paint12_linear_1_35" x1="343.193" y1="254.256" x2="361.359" y2="207.064" gradientUnits="userSpaceOnUse"> <stop stop-color="#37FFCF"></stop> <stop offset="1" stop-color="#377BFF"></stop> </linearGradient> <linearGradient id="paint13_linear_1_35" x1="401.935" y1="-16.2316" x2="328.869" y2="303.132" gradientUnits="userSpaceOnUse"> <stop stop-color="#37FFCF"></stop> <stop offset="1" stop-color="#377BFF"></stop> </linearGradient> <linearGradient id="paint14_linear_1_35" x1="506.769" y1="79.5199" x2="425.098" y2="55.429" gradientUnits="userSpaceOnUse"> <stop stop-color="#FF0CCE"></stop> <stop offset="1" stop-color="#FFDE00"></stop> </linearGradient> <linearGradient id="paint15_linear_1_35" x1="526.532" y1="99.658" x2="539.558" y2="139.26" gradientUnits="userSpaceOnUse"> <stop stop-color="#FF0CCE"></stop> <stop offset="1" stop-color="#FFDE00"></stop> </linearGradient> <linearGradient id="paint16_linear_1_35" x1="455.904" y1="36.265" x2="399.738" y2="68.4522" gradientUnits="userSpaceOnUse"> <stop stop-color="#FF0CCE"></stop> <stop offset="1" stop-color="#FFDE00"></stop> </linearGradient> <linearGradient id="paint17_linear_1_35" x1="570.134" y1="150.533" x2="537.946" y2="206.699" gradientUnits="userSpaceOnUse"> <stop stop-color="#FF0CCE"></stop> <stop offset="1" stop-color="#FFDE00"></stop> </linearGradient> <linearGradient id="paint18_linear_1_35" x1="474.962" y1="196.847" x2="415.537" y2="212.604" gradientUnits="userSpaceOnUse"> <stop stop-color="#FF0CCE"></stop> <stop offset="1" stop-color="#FFDE00"></stop> </linearGradient> <linearGradient id="paint19_linear_1_35" x1="382.944" y1="213.803" x2="419.893" y2="118.972" gradientUnits="userSpaceOnUse"> <stop stop-color="#FF0CCE"></stop> <stop offset="0.8779" stop-color="#FFDE00"></stop> </linearGradient> <linearGradient id="paint20_linear_1_35" x1="250.495" y1="122.319" x2="553.778" y2="66.7984" gradientUnits="userSpaceOnUse"> <stop stop-color="#FF0CCE"></stop> <stop offset="1" stop-color="#FFDE00"></stop> </linearGradient> <linearGradient id="paint21_linear_1_35" x1="433.978" y1="172.589" x2="458.069" y2="254.277" gradientUnits="userSpaceOnUse"> <stop stop-color="#FF0CCE"></stop> <stop offset="1" stop-color="#FFDE00"></stop> </linearGradient> <linearGradient id="paint22_linear_1_35" x1="582.224" y1="171.787" x2="490.518" y2="136.426" gradientUnits="userSpaceOnUse"> <stop stop-color="#FF0CCE"></stop> <stop offset="1" stop-color="#FFDE00"></stop> </linearGradient> <clipPath id="clip0_1_35"> <rect width="210.9" height="213.1" fill="white" transform="translate(369.311 24)"></rect> </clipPath> </defs> </svg> 