<?xml version="1.0" encoding="UTF-8"?> <svg xmlns="http://www.w3.org/2000/svg" width="560" height="350" viewBox="0 0 560 350" fill="none"> <path d="M283.178 135.449L348.413 187.253L329.625 190.025L285.396 150.479L283.178 135.449Z" fill="url(#paint0_linear_33_743)"></path> <path d="M360.546 139.391L358.329 124.36L298.208 133.231L317.334 145.767L360.546 139.391Z" fill="url(#paint1_linear_33_743)"></path> <path d="M191.825 244.912L170.265 228.897L156.404 134.958L175.192 132.185L191.825 244.912Z" fill="url(#paint2_linear_33_743)"></path> <path d="M384.447 197.294L370.586 103.355L175.192 132.185L177.964 150.973L358.328 124.36L367.199 184.481L384.447 197.294Z" fill="url(#paint3_linear_33_743)"></path> <path d="M301.964 132.677L384.447 197.294L279.235 212.818L277.017 197.788L348.411 187.253L283.176 135.449L301.964 132.677Z" fill="url(#paint4_linear_33_743)"></path> <path d="M177.966 150.973L283.177 135.449L285.395 150.479L210.244 161.568L279.236 212.818L260.448 215.59L177.966 150.973Z" fill="url(#paint5_linear_33_743)"></path> <path d="M210.245 161.568L279.237 212.818L277.019 197.788L229.033 158.796L210.245 161.568Z" fill="url(#paint6_linear_33_743)"></path> <path d="M402.25 213.864L191.826 244.913L189.054 226.125L384.447 197.294L370.586 103.355L388.389 119.925L402.25 213.864Z" fill="url(#paint7_linear_33_743)"></path> <path d="M197.369 165.387L177.965 150.973L189.054 226.125L205.963 223.63L197.369 165.387Z" fill="url(#paint8_linear_33_743)"></path> <g filter="url(#filter0_f_33_743)"> <path d="M231.065 67.6401L238.033 82.5959L234.459 81.4229L230.126 70.4994L231.065 67.6401Z" fill="url(#paint9_linear_33_743)"></path> <path d="M244.422 75.1913L245.36 72.3321L233.923 68.5786L236.202 72.4935L244.422 75.1913Z" fill="url(#paint10_linear_33_743)"></path> <path d="M205.185 78.9413L202.784 74.1943L208.649 56.3242L212.223 57.4972L205.185 78.9413Z" fill="url(#paint11_linear_33_743)"></path> <path d="M243.528 87.5662L249.393 69.696L212.223 57.4972L211.05 61.0712L245.361 72.3317L241.607 83.7686L243.528 87.5662Z" fill="url(#paint12_linear_33_743)"></path> <path d="M234.639 68.8128L243.528 87.5662L223.513 80.9975L224.452 78.1383L238.033 82.5956L231.065 67.6398L234.639 68.8128Z" fill="url(#paint13_linear_33_743)"></path> <path d="M211.05 61.0708L231.064 67.6394L230.126 70.4986L215.83 65.8068L223.513 80.9971L219.939 79.8242L211.05 61.0708Z" fill="url(#paint14_linear_33_743)"></path> <path d="M215.83 65.8071L223.513 80.9975L224.452 78.1383L219.404 66.9801L215.83 65.8071Z" fill="url(#paint15_linear_33_743)"></path> <path d="M245.214 92.0784L205.185 78.9412L206.358 75.3672L243.528 87.566L249.393 69.6959L251.079 74.2083L245.214 92.0784Z" fill="url(#paint16_linear_33_743)"></path> <path d="M213.211 65.3434L211.05 61.0711L206.358 75.3672L209.574 76.4229L213.211 65.3434Z" fill="url(#paint17_linear_33_743)"></path> </g> <g opacity="0.5" filter="url(#filter1_f_33_743)"> <path d="M348.988 281.193L324.703 279.684L328.782 275.88L345.976 277.963L348.988 281.193Z" fill="url(#paint18_linear_33_743)"></path> <path d="M329.661 293.177L332.673 296.408L345.725 284.236L339.042 284.429L329.661 293.177Z" fill="url(#paint19_linear_33_743)"></path> <path d="M353.003 239.705L360.847 239.939L379.673 260.127L375.594 263.931L353.003 239.705Z" fill="url(#paint20_linear_33_743)"></path> <path d="M314.347 283.301L333.173 303.489L375.594 263.931L371.829 259.893L332.671 296.408L320.623 283.488L314.347 283.301Z" fill="url(#paint21_linear_33_743)"></path> <path d="M344.908 284.997L314.347 283.301L337.189 262L340.201 265.23L324.702 279.684L348.987 281.194L344.908 284.997Z" fill="url(#paint22_linear_33_743)"></path> <path d="M371.831 259.893L348.989 281.193L345.976 277.963L362.292 262.748L337.191 262L341.27 258.196L371.831 259.893Z" fill="url(#paint23_linear_33_743)"></path> <path d="M362.29 262.75L337.189 262.001L340.201 265.231L358.211 266.553L362.29 262.75Z" fill="url(#paint24_linear_33_743)"></path> <path d="M307.321 282.305L353.005 239.704L356.77 243.742L314.349 283.3L333.175 303.488L326.147 302.493L307.321 282.305Z" fill="url(#paint25_linear_33_743)"></path> <path d="M364.771 259.682L371.83 259.892L356.77 243.742L353.099 247.165L364.771 259.682Z" fill="url(#paint26_linear_33_743)"></path> </g> <defs> <filter id="filter0_f_33_743" x="190.784" y="44.3242" width="72.2947" height="59.7544" filterUnits="userSpaceOnUse" color-interpolation-filters="sRGB"> <feFlood flood-opacity="0" result="BackgroundImageFix"></feFlood> <feBlend mode="normal" in="SourceGraphic" in2="BackgroundImageFix" result="shape"></feBlend> <feGaussianBlur stdDeviation="6" result="effect1_foregroundBlur_33_743"></feGaussianBlur> </filter> <filter id="filter1_f_33_743" x="302.321" y="234.704" width="82.3516" height="73.7847" filterUnits="userSpaceOnUse" color-interpolation-filters="sRGB"> <feFlood flood-opacity="0" result="BackgroundImageFix"></feFlood> <feBlend mode="normal" in="SourceGraphic" in2="BackgroundImageFix" result="shape"></feBlend> <feGaussianBlur stdDeviation="2.5" result="effect1_foregroundBlur_33_743"></feGaussianBlur> </filter> <linearGradient id="paint0_linear_33_743" x1="303.391" y1="39.7136" x2="285.194" y2="242.078" gradientUnits="userSpaceOnUse"> <stop stop-color="#00DBE5"></stop> <stop offset="1" stop-color="#9C4EFF"></stop> </linearGradient> <linearGradient id="paint1_linear_33_743" x1="318.938" y1="66.6462" x2="335.43" y2="178.175" gradientUnits="userSpaceOnUse"> <stop stop-color="#00DBE5"></stop> <stop offset="1" stop-color="#9C4EFF"></stop> </linearGradient> <linearGradient id="paint2_linear_33_743" x1="435.371" y1="249.321" x2="212.312" y2="62.6417" gradientUnits="userSpaceOnUse"> <stop stop-color="#37FFCF"></stop> <stop offset="1" stop-color="#377BFF"></stop> </linearGradient> <linearGradient id="paint3_linear_33_743" x1="435.371" y1="249.321" x2="212.312" y2="62.6417" gradientUnits="userSpaceOnUse"> <stop stop-color="#37FFCF"></stop> <stop offset="1" stop-color="#377BFF"></stop> </linearGradient> <linearGradient id="paint4_linear_33_743" x1="435.371" y1="249.321" x2="212.312" y2="62.6417" gradientUnits="userSpaceOnUse"> <stop stop-color="#37FFCF"></stop> <stop offset="1" stop-color="#377BFF"></stop> </linearGradient> <linearGradient id="paint5_linear_33_743" x1="318.942" y1="233.855" x2="177.375" y2="148.062" gradientUnits="userSpaceOnUse"> <stop stop-color="#37FFCF"></stop> <stop offset="1" stop-color="#377BFF"></stop> </linearGradient> <linearGradient id="paint6_linear_33_743" x1="203.454" y1="-91.5362" x2="269.852" y2="354.516" gradientUnits="userSpaceOnUse"> <stop stop-color="#00DBE5"></stop> <stop offset="1" stop-color="#9C4EFF"></stop> </linearGradient> <linearGradient id="paint7_linear_33_743" x1="339.745" y1="58.1495" x2="236.667" y2="326.258" gradientUnits="userSpaceOnUse"> <stop offset="0.170075" stop-color="#00DBE5"></stop> <stop offset="0.89083" stop-color="#8E67FF"></stop> </linearGradient> <linearGradient id="paint8_linear_33_743" x1="339.745" y1="58.1495" x2="236.667" y2="326.258" gradientUnits="userSpaceOnUse"> <stop offset="0.170075" stop-color="#00DBE5"></stop> <stop offset="0.89083" stop-color="#8E67FF"></stop> </linearGradient> <linearGradient id="paint9_linear_33_743" x1="243.125" y1="52.4698" x2="221.977" y2="86.7093" gradientUnits="userSpaceOnUse"> <stop stop-color="#00DBE5"></stop> <stop offset="1" stop-color="#9C4EFF"></stop> </linearGradient> <linearGradient id="paint10_linear_33_743" x1="243.494" y1="58.6184" x2="236.537" y2="79.8378" gradientUnits="userSpaceOnUse"> <stop stop-color="#00DBE5"></stop> <stop offset="1" stop-color="#9C4EFF"></stop> </linearGradient> <linearGradient id="paint11_linear_33_743" x1="247.942" y1="101.294" x2="224.959" y2="48.4645" gradientUnits="userSpaceOnUse"> <stop stop-color="#37FFCF"></stop> <stop offset="1" stop-color="#377BFF"></stop> </linearGradient> <linearGradient id="paint12_linear_33_743" x1="247.942" y1="101.294" x2="224.959" y2="48.4645" gradientUnits="userSpaceOnUse"> <stop stop-color="#37FFCF"></stop> <stop offset="1" stop-color="#377BFF"></stop> </linearGradient> <linearGradient id="paint13_linear_33_743" x1="247.942" y1="101.294" x2="224.959" y2="48.4645" gradientUnits="userSpaceOnUse"> <stop stop-color="#37FFCF"></stop> <stop offset="1" stop-color="#377BFF"></stop> </linearGradient> <linearGradient id="paint14_linear_33_743" x1="228.684" y1="88.241" x2="211.203" y2="60.5028" gradientUnits="userSpaceOnUse"> <stop stop-color="#37FFCF"></stop> <stop offset="1" stop-color="#377BFF"></stop> </linearGradient> <linearGradient id="paint15_linear_33_743" x1="237.045" y1="20.3652" x2="209.3" y2="105.27" gradientUnits="userSpaceOnUse"> <stop stop-color="#00DBE5"></stop> <stop offset="1" stop-color="#9C4EFF"></stop> </linearGradient> <linearGradient id="paint16_linear_33_743" x1="247.933" y1="58.9555" x2="205.924" y2="97.3242" gradientUnits="userSpaceOnUse"> <stop offset="0.170075" stop-color="#00DBE5"></stop> <stop offset="0.89083" stop-color="#8E67FF"></stop> </linearGradient> <linearGradient id="paint17_linear_33_743" x1="247.933" y1="58.9555" x2="205.924" y2="97.3242" gradientUnits="userSpaceOnUse"> <stop offset="0.170075" stop-color="#00DBE5"></stop> <stop offset="0.89083" stop-color="#8E67FF"></stop> </linearGradient> <linearGradient id="paint18_linear_33_743" x1="359.884" y1="307.505" x2="330.693" y2="256.121" gradientUnits="userSpaceOnUse"> <stop stop-color="#00DBE5"></stop> <stop offset="1" stop-color="#9C4EFF"></stop> </linearGradient> <linearGradient id="paint19_linear_33_743" x1="351.693" y1="303.651" x2="329.334" y2="279.689" gradientUnits="userSpaceOnUse"> <stop stop-color="#00DBE5"></stop> <stop offset="1" stop-color="#9C4EFF"></stop> </linearGradient> <linearGradient id="paint20_linear_33_743" x1="293.48" y1="279.347" x2="378.008" y2="287.649" gradientUnits="userSpaceOnUse"> <stop stop-color="#37FFCF"></stop> <stop offset="1" stop-color="#377BFF"></stop> </linearGradient> <linearGradient id="paint21_linear_33_743" x1="293.48" y1="279.347" x2="378.008" y2="287.649" gradientUnits="userSpaceOnUse"> <stop stop-color="#37FFCF"></stop> <stop offset="1" stop-color="#377BFF"></stop> </linearGradient> <linearGradient id="paint22_linear_33_743" x1="293.48" y1="279.347" x2="378.008" y2="287.649" gradientUnits="userSpaceOnUse"> <stop stop-color="#37FFCF"></stop> <stop offset="1" stop-color="#377BFF"></stop> </linearGradient> <linearGradient id="paint23_linear_33_743" x1="324.139" y1="263.595" x2="372.479" y2="260.975" gradientUnits="userSpaceOnUse"> <stop stop-color="#37FFCF"></stop> <stop offset="1" stop-color="#377BFF"></stop> </linearGradient> <linearGradient id="paint24_linear_33_743" x1="405.636" y1="322.248" x2="316.109" y2="226.485" gradientUnits="userSpaceOnUse"> <stop stop-color="#00DBE5"></stop> <stop offset="1" stop-color="#9C4EFF"></stop> </linearGradient> <linearGradient id="paint25_linear_33_743" x1="348.069" y1="309.163" x2="328.067" y2="227.885" gradientUnits="userSpaceOnUse"> <stop offset="0.170075" stop-color="#00DBE5"></stop> <stop offset="0.89083" stop-color="#8E67FF"></stop> </linearGradient> <linearGradient id="paint26_linear_33_743" x1="348.069" y1="309.163" x2="328.067" y2="227.885" gradientUnits="userSpaceOnUse"> <stop offset="0.170075" stop-color="#00DBE5"></stop> <stop offset="0.89083" stop-color="#8E67FF"></stop> </linearGradient> </defs> </svg> 