<?xml version="1.0" encoding="UTF-8"?> <svg xmlns="http://www.w3.org/2000/svg" width="350" height="410" viewBox="0 0 350 410" fill="none"> <rect width="10.5042" height="87.3717" transform="matrix(0.866025 0.5 -2.20305e-08 1 256.849 159.029)" fill="url(#paint0_linear_17_968)"></rect> <rect width="10.5042" height="87.3717" transform="matrix(-0.866025 0.5 2.20305e-08 1 93.2321 159.029)" fill="url(#paint1_linear_17_968)"></rect> <path fill-rule="evenodd" clip-rule="evenodd" d="M275 148.73L234.147 172.317L234.147 182.821L265.903 164.486L265.903 251.136L234.147 232.802L234.147 243.306L265.903 261.64V261.891L266.12 261.766L275 266.893L275 256.639L275 256.388V159.234V158.969V148.73Z" fill="url(#paint2_linear_17_968)"></path> <path fill-rule="evenodd" clip-rule="evenodd" d="M75.046 148.73L115.899 172.317V182.821L84.1778 164.506L84.1778 251.116L115.899 232.802V243.306L84.1778 261.62V261.891L83.9431 261.756L75.046 266.893L75.046 256.388L75.0808 256.368L75.0808 159.254L75.046 159.234L75.046 148.73Z" fill="url(#paint3_linear_17_968)"></path> <rect width="10.5042" height="47.2221" transform="matrix(0.866025 0.5 -2.20305e-08 1 165.914 96.2563)" fill="url(#paint4_linear_17_968)"></rect> <path fill-rule="evenodd" clip-rule="evenodd" d="M175.073 101.531L165.911 96.2451L165.911 106.749L175.035 111.991L175.035 148.73L184.132 143.478L184.132 117.217L247.93 153.869L256.919 148.751L184.132 106.758V96.3011L175.073 101.531Z" fill="url(#paint5_linear_17_968)"></path> <path d="M165.911 319.386L256.919 266.88L247.93 261.762L165.911 308.882L165.911 319.386Z" fill="url(#paint6_linear_17_968)"></path> <path d="M174.992 101.497L93.232 148.703L102.331 153.952L174.992 112.001L174.992 101.497Z" fill="url(#paint7_linear_17_968)"></path> <path d="M174.992 314.142L93.232 266.936L102.331 261.687L174.992 303.637L174.992 314.142Z" fill="url(#paint8_linear_17_968)"></path> <path fill-rule="evenodd" clip-rule="evenodd" d="M84.1457 153.954L84.0969 153.982L75 148.73L174.992 91L175 91.0047L175.008 91L265.903 143.478L275 148.73L265.903 153.982L234.154 172.313L225.057 167.061L256.806 148.73L175 101.5L93.2426 148.702L124.996 167.035L115.899 172.287L84.1457 153.954Z" fill="url(#paint9_linear_17_968)"></path> <path fill-rule="evenodd" clip-rule="evenodd" d="M265.896 272.171L265.883 272.164L184.132 319.363V319.428L175.035 324.68V324.615L175.008 324.631L165.911 319.378L175.035 314.111L175.035 277.503L184.132 272.251L184.132 308.858L256.786 266.912L225.05 248.589L234.147 243.336L265.883 261.66L265.903 261.648L275 266.9L274.98 266.912L274.993 266.919L265.896 272.171Z" fill="url(#paint10_linear_17_968)"></path> <path fill-rule="evenodd" clip-rule="evenodd" d="M124.996 248.589L93.2303 266.928L165.913 308.884V272.251L175.01 277.503V324.68L165.913 319.428V319.397L75 266.908L84.0969 261.656L84.1325 261.677L115.899 243.336L124.996 248.589Z" fill="url(#paint11_linear_17_968)"></path> <rect width="68.2849" height="10.5042" transform="matrix(-0.866025 0.5 0.866025 0.5 225.05 227.611)" fill="url(#paint12_linear_17_968)"></rect> <rect width="68.2849" height="10.5042" transform="matrix(0.866025 0.5 -0.866025 0.5 124.996 227.611)" fill="url(#paint13_linear_17_968)"></rect> <rect width="10.5042" height="52.921" transform="matrix(0.866025 0.5 -2.20305e-08 1 215.953 181.029)" fill="url(#paint14_linear_17_968)"></rect> <rect width="10.5042" height="52.921" transform="matrix(-0.866025 0.5 2.20305e-08 1 134.093 181.029)" fill="url(#paint15_linear_17_968)"></rect> <rect width="52.1277" height="10.5042" transform="matrix(-0.866025 0.5 2.20305e-08 1 175.01 148.725)" fill="url(#paint16_linear_17_968)"></rect> <rect width="57.7348" height="10.5042" transform="matrix(0.866025 0.5 -2.20305e-08 1 175.035 148.725)" fill="url(#paint17_linear_17_968)"></rect> <path fill-rule="evenodd" clip-rule="evenodd" d="M175.025 206.421L234.147 172.287V178.512V182.791V232.865V233.95V243.369L175.025 277.503L175.025 266.999L175.035 266.993L175.035 216.919L175.025 216.925L175.025 206.421ZM184.132 211.667L184.132 261.741L225.05 238.117V188.043L184.132 211.667Z" fill="url(#paint18_linear_17_968)"></path> <path fill-rule="evenodd" clip-rule="evenodd" d="M125.05 167.064L165.926 143.464L165.914 143.457L175.01 138.205L175.023 138.212L175.036 138.205L184.132 143.457L184.12 143.464L224.996 167.064L225.05 167.033L234.147 172.285L234.093 172.316L234.147 172.348L225.05 177.6L224.996 177.569L184.12 201.168L184.132 201.176L175.035 206.428L175.023 206.421L175.011 206.428L165.914 201.176L165.926 201.168L125.05 177.569L124.996 177.6L115.899 172.348L115.953 172.316L115.899 172.285L124.996 167.033L125.05 167.064ZM134.147 172.316L175.023 195.916L215.899 172.316L175.023 148.717L134.147 172.316Z" fill="url(#paint19_linear_17_968)"></path> <path fill-rule="evenodd" clip-rule="evenodd" d="M115.899 172.287L175.021 206.421V206.437L175.035 206.446V276.903L175.021 276.895V277.503L115.899 243.369L115.899 233.95L115.899 182.791L115.899 178.512V172.287ZM124.996 238.117L165.939 261.755V211.682L124.996 188.043L124.996 238.117Z" fill="url(#paint20_linear_17_968)"></path> <defs> <linearGradient id="paint0_linear_17_968" x1="2.62408" y1="107.803" x2="-56.2" y2="51.6977" gradientUnits="userSpaceOnUse"> <stop stop-color="#37FFCF"></stop> <stop offset="1" stop-color="#377BFF"></stop> </linearGradient> <linearGradient id="paint1_linear_17_968" x1="2.62408" y1="107.803" x2="-56.2" y2="51.6977" gradientUnits="userSpaceOnUse"> <stop stop-color="#37FFCF"></stop> <stop offset="1" stop-color="#377BFF"></stop> </linearGradient> <linearGradient id="paint2_linear_17_968" x1="306.433" y1="148.73" x2="244.716" y2="217.502" gradientUnits="userSpaceOnUse"> <stop stop-color="#00DBE5"></stop> <stop offset="1" stop-color="#9C4EFF"></stop> </linearGradient> <linearGradient id="paint3_linear_17_968" x1="115.899" y1="262.351" x2="71.0549" y2="264.35" gradientUnits="userSpaceOnUse"> <stop stop-color="#37FFCF"></stop> <stop offset="1" stop-color="#377BFF"></stop> </linearGradient> <linearGradient id="paint4_linear_17_968" x1="2.62408" y1="58.2645" x2="-24.6804" y2="10.0801" gradientUnits="userSpaceOnUse"> <stop stop-color="#37FFCF"></stop> <stop offset="1" stop-color="#377BFF"></stop> </linearGradient> <linearGradient id="paint5_linear_17_968" x1="104.917" y1="137.551" x2="266.691" y2="153.869" gradientUnits="userSpaceOnUse"> <stop stop-color="#00DBE5"></stop> <stop offset="0.763665" stop-color="#9C4EFF"></stop> </linearGradient> <linearGradient id="paint6_linear_17_968" x1="280.717" y1="252.569" x2="188.265" y2="299.717" gradientUnits="userSpaceOnUse"> <stop stop-color="#00DBE5"></stop> <stop offset="1" stop-color="#9C4EFF"></stop> </linearGradient> <linearGradient id="paint7_linear_17_968" x1="192.368" y1="114.265" x2="89.3362" y2="148.054" gradientUnits="userSpaceOnUse"> <stop stop-color="#37FFCF"></stop> <stop offset="1" stop-color="#377BFF"></stop> </linearGradient> <linearGradient id="paint8_linear_17_968" x1="71.8517" y1="254.025" x2="167.058" y2="298.857" gradientUnits="userSpaceOnUse"> <stop stop-color="#00DBE5"></stop> <stop offset="1" stop-color="#9C4EFF"></stop> </linearGradient> <linearGradient id="paint9_linear_17_968" x1="234.712" y1="131.656" x2="120.737" y2="201.293" gradientUnits="userSpaceOnUse"> <stop stop-color="#00DBE5"></stop> <stop offset="1" stop-color="#9C4EFF"></stop> </linearGradient> <linearGradient id="paint10_linear_17_968" x1="160.073" y1="286.141" x2="180.502" y2="321.524" gradientUnits="userSpaceOnUse"> <stop stop-color="#37FFCF"></stop> <stop offset="1" stop-color="#377BFF"></stop> </linearGradient> <linearGradient id="paint11_linear_17_968" x1="165.366" y1="331.772" x2="160.389" y2="268.567" gradientUnits="userSpaceOnUse"> <stop stop-color="#37FFCF"></stop> <stop offset="1" stop-color="#377BFF"></stop> </linearGradient> <linearGradient id="paint12_linear_17_968" x1="44.6664" y1="-3.63321" x2="1.16555" y2="19.3787" gradientUnits="userSpaceOnUse"> <stop stop-color="#FF0CCE"></stop> <stop offset="1" stop-color="#FFDE00"></stop> </linearGradient> <linearGradient id="paint13_linear_17_968" x1="44.6664" y1="-3.63321" x2="23.8164" y2="7.94975" gradientUnits="userSpaceOnUse"> <stop stop-color="#FF0CCE"></stop> <stop offset="1" stop-color="#FFDE00"></stop> </linearGradient> <linearGradient id="paint14_linear_17_968" x1="5.25212" y1="60.9204" x2="-5.59573" y2="19.2221" gradientUnits="userSpaceOnUse"> <stop stop-color="#FF0CCE"></stop> <stop offset="1" stop-color="#FFDE00"></stop> </linearGradient> <linearGradient id="paint15_linear_17_968" x1="5.25212" y1="60.9204" x2="-5.59573" y2="19.2221" gradientUnits="userSpaceOnUse"> <stop stop-color="#FF0CCE"></stop> <stop offset="1" stop-color="#FFDE00"></stop> </linearGradient> <linearGradient id="paint16_linear_17_968" x1="35.3909" y1="13.3633" x2="11.7987" y2="-9.92156" gradientUnits="userSpaceOnUse"> <stop stop-color="#FF0CCE"></stop> <stop offset="1" stop-color="#FFDE00"></stop> </linearGradient> <linearGradient id="paint17_linear_17_968" x1="-1.95101e-07" y1="-17.7706" x2="36.631" y2="23.4768" gradientUnits="userSpaceOnUse"> <stop stop-color="#FF0CCE"></stop> <stop offset="0.877875" stop-color="#FFDE00"></stop> </linearGradient> <linearGradient id="paint18_linear_17_968" x1="287.292" y1="113.169" x2="170.186" y2="279.314" gradientUnits="userSpaceOnUse"> <stop stop-color="#FF0CCE"></stop> <stop offset="1" stop-color="#FFDE00"></stop> </linearGradient> <linearGradient id="paint19_linear_17_968" x1="166.825" y1="187.55" x2="117.732" y2="161.357" gradientUnits="userSpaceOnUse"> <stop stop-color="#FF0CCE"></stop> <stop offset="1" stop-color="#FFDE00"></stop> </linearGradient> <linearGradient id="paint20_linear_17_968" x1="107.883" y1="243.938" x2="166.705" y2="218.378" gradientUnits="userSpaceOnUse"> <stop stop-color="#FF0CCE"></stop> <stop offset="1" stop-color="#FFDE00"></stop> </linearGradient> </defs> </svg> 