<?xml version="1.0" encoding="UTF-8"?> <svg xmlns="http://www.w3.org/2000/svg" width="560" height="350" viewBox="0 0 560 350" fill="none"> <path d="M175.281 228.058V123.091L221.065 149.054V214.658L216.319 211.308V204.05L209.586 201.258V155.196L186.169 141.516V234.2L175.281 228.058Z" fill="url(#paint0_linear_33_743)"></path> <path d="M186.172 234.2V141.516L196.78 147.379V215.216L221.172 201.765V214.607L186.172 234.2Z" fill="url(#paint1_linear_33_743)"></path> <path d="M221.08 201.822L196.778 215.216V202.096L209.355 196.239L221.08 201.822Z" fill="url(#paint2_linear_33_743)"></path> <path d="M231.392 208.796L221.062 214.658V149.054L231.671 142.633L231.392 208.796Z" fill="url(#paint3_linear_33_743)"></path> <path d="M231.673 142.633L221.065 149.054L175.281 123.091L186.169 116.67L231.673 142.633Z" fill="url(#paint4_linear_33_743)"></path> <path d="M239.598 258.463V92.8481L311.834 133.811V237.32L304.346 232.035V220.583L295.096 216.178V143.501L256.776 121.919V268.153L239.598 258.463Z" fill="url(#paint5_linear_33_743)"></path> <path d="M256.777 268.152V121.918L273.515 131.168V238.201L304.347 220.582V240.844L256.777 268.152Z" fill="url(#paint6_linear_33_743)"></path> <path d="M304.348 220.582L273.516 238.201V217.499L285.849 211.773L304.348 220.582Z" fill="url(#paint7_linear_33_743)"></path> <path d="M400.365 186.667L311.832 237.32V133.811L328.57 123.681V131.609L318.439 137.335V158.477L328.129 163.322V206.488L400.365 165.084V186.667Z" fill="url(#paint8_linear_33_743)"></path> <path d="M400.364 165.084L328.128 206.488V186.226L366.888 165.524L318.437 137.335L335.615 127.645L400.364 165.084Z" fill="url(#paint9_linear_33_743)"></path> <path d="M349.71 174.774L366.888 165.525L318.437 137.335V158.477L349.71 174.774Z" fill="url(#paint10_linear_33_743)"></path> <path d="M328.571 123.68L311.834 133.811L239.598 92.848L256.776 82.7173L328.571 123.68Z" fill="url(#paint11_linear_33_743)"></path> <g filter="url(#filter0_f_33_743)"> <path d="M368.802 69.9911L402.021 77.9917L375.674 99.704L368.802 69.9911Z" fill="url(#paint12_linear_33_743)"></path> </g> <g opacity="0.3" filter="url(#filter1_f_33_743)"> <path d="M205.284 262.059L242.608 295.154L193.761 305.066L205.284 262.059Z" fill="url(#paint13_linear_33_743)"></path> </g> <defs> <filter id="filter0_f_33_743" x="352.802" y="53.9912" width="65.2184" height="61.7129" filterUnits="userSpaceOnUse" color-interpolation-filters="sRGB"> <feFlood flood-opacity="0" result="BackgroundImageFix"></feFlood> <feBlend mode="normal" in="SourceGraphic" in2="BackgroundImageFix" result="shape"></feBlend> <feGaussianBlur stdDeviation="8" result="effect1_foregroundBlur_33_743"></feGaussianBlur> </filter> <filter id="filter1_f_33_743" x="177.761" y="246.059" width="80.8475" height="75.0073" filterUnits="userSpaceOnUse" color-interpolation-filters="sRGB"> <feFlood flood-opacity="0" result="BackgroundImageFix"></feFlood> <feBlend mode="normal" in="SourceGraphic" in2="BackgroundImageFix" result="shape"></feBlend> <feGaussianBlur stdDeviation="8" result="effect1_foregroundBlur_33_743"></feGaussianBlur> </filter> <linearGradient id="paint0_linear_33_743" x1="211.75" y1="131.699" x2="165.246" y2="161.08" gradientUnits="userSpaceOnUse"> <stop stop-color="#00DBE5"></stop> <stop offset="1" stop-color="#9C4EFF"></stop> </linearGradient> <linearGradient id="paint1_linear_33_743" x1="201.247" y1="141.516" x2="201.247" y2="234.2" gradientUnits="userSpaceOnUse"> <stop stop-color="#37FFCF"></stop> <stop offset="1" stop-color="#377BFF"></stop> </linearGradient> <linearGradient id="paint2_linear_33_743" x1="206.549" y1="198.466" x2="206.549" y2="215.216" gradientUnits="userSpaceOnUse"> <stop stop-color="#37FFCF"></stop> <stop offset="1" stop-color="#377BFF"></stop> </linearGradient> <linearGradient id="paint3_linear_33_743" x1="249.119" y1="142.633" x2="249.119" y2="214.658" gradientUnits="userSpaceOnUse"> <stop stop-color="#37FFCF"></stop> <stop offset="1" stop-color="#377BFF"></stop> </linearGradient> <linearGradient id="paint4_linear_33_743" x1="203.477" y1="116.67" x2="203.477" y2="149.054" gradientUnits="userSpaceOnUse"> <stop stop-color="#37FFCF"></stop> <stop offset="1" stop-color="#377BFF"></stop> </linearGradient> <linearGradient id="paint5_linear_33_743" x1="297.138" y1="106.43" x2="223.764" y2="152.787" gradientUnits="userSpaceOnUse"> <stop stop-color="#00DBE5"></stop> <stop offset="1" stop-color="#9C4EFF"></stop> </linearGradient> <linearGradient id="paint6_linear_33_743" x1="280.562" y1="121.918" x2="280.562" y2="268.152" gradientUnits="userSpaceOnUse"> <stop stop-color="#37FFCF"></stop> <stop offset="1" stop-color="#00DBE5"></stop> </linearGradient> <linearGradient id="paint7_linear_33_743" x1="288.932" y1="211.773" x2="288.932" y2="238.201" gradientUnits="userSpaceOnUse"> <stop stop-color="#37FFCF"></stop> <stop offset="1" stop-color="#377BFF"></stop> </linearGradient> <linearGradient id="paint8_linear_33_743" x1="356.099" y1="123.681" x2="356.099" y2="237.32" gradientUnits="userSpaceOnUse"> <stop stop-color="#37FFCF"></stop> <stop offset="1" stop-color="#377BFF"></stop> </linearGradient> <linearGradient id="paint9_linear_33_743" x1="383.696" y1="133.753" x2="350.79" y2="186.18" gradientUnits="userSpaceOnUse"> <stop stop-color="#00DBE5"></stop> <stop offset="1" stop-color="#9C4EFF"></stop> </linearGradient> <linearGradient id="paint10_linear_33_743" x1="342.663" y1="137.335" x2="342.663" y2="174.774" gradientUnits="userSpaceOnUse"> <stop stop-color="#37FFCF"></stop> <stop offset="1" stop-color="#377BFF"></stop> </linearGradient> <linearGradient id="paint11_linear_33_743" x1="284.084" y1="82.7173" x2="284.084" y2="133.811" gradientUnits="userSpaceOnUse"> <stop stop-color="#37FFCF"></stop> <stop offset="1" stop-color="#377BFF"></stop> </linearGradient> <linearGradient id="paint12_linear_33_743" x1="406.821" y1="89.0269" x2="368.282" y2="78.8069" gradientUnits="userSpaceOnUse"> <stop stop-color="#3763FF"></stop> <stop offset="1" stop-color="#37FCD0"></stop> </linearGradient> <linearGradient id="paint13_linear_33_743" x1="241.226" y1="312.669" x2="198.567" y2="273.064" gradientUnits="userSpaceOnUse"> <stop stop-color="#3763FF"></stop> <stop offset="1" stop-color="#37FCD0"></stop> </linearGradient> </defs> </svg> 