<?xml version="1.0" encoding="UTF-8"?> <svg xmlns="http://www.w3.org/2000/svg" width="170" height="170" viewBox="0 0 170 170" fill="none"> <g clip-path="url(#clip0_19_624)"> <g filter="url(#filter0_d_19_624)"> <rect x="23" y="2" width="124" height="124" rx="62" fill="url(#paint0_linear_19_624)"></rect> </g> <path d="M104.224 63.9357L114 54.0352L97.1814 37.0029L86.6766 47.5747H83.2742L72.8184 37L56 54.0322L65.726 63.9364L62.1678 67.5863C60.18 69.5994 60.18 72.8746 62.1678 74.8877C63.0896 75.8211 64.2793 76.3218 65.4886 76.3894C65.5564 77.6614 66.0778 78.8475 66.9741 79.7552C67.8706 80.6631 69.0421 81.1906 70.2983 81.2592C70.3651 82.4839 70.8587 83.6892 71.7805 84.6228C72.703 85.5572 73.8942 86.057 75.1046 86.124C75.1708 87.3498 75.6645 88.556 76.587 89.4903C78.5745 91.5032 81.8089 91.5033 83.7967 89.4903L84.9965 88.2751L86.1998 89.4903C88.1875 91.5032 91.4218 91.5032 93.4095 89.4903C94.306 88.5824 94.8269 87.396 94.8946 86.1238C96.1041 86.0562 97.2942 85.5564 98.2161 84.6227C99.1386 83.6884 99.6322 82.4821 99.6983 81.2565C100.909 81.1895 102.1 80.6895 103.022 79.7552C103.919 78.8474 104.44 77.661 104.507 76.3888C105.717 76.3212 106.907 75.8213 107.829 74.8878C109.816 72.8747 109.816 69.5995 107.829 67.5865L104.224 63.9357ZM88.078 51.0166L97.1739 41.8628L109.194 54.0353L101.821 61.5021L99.3312 58.9809C99.7802 58.6404 100.211 58.2646 100.619 57.8514L101.821 56.6345L99.4174 54.2008L98.2159 55.4177C94.9031 58.7726 89.5126 58.7726 86.1998 55.4177L84.9983 54.2008L78.9903 60.2851C78.3275 60.9562 77.2496 60.9561 76.5871 60.2851C75.93 59.6197 75.9139 58.5331 76.5922 57.8463L83.279 51.0166H88.078ZM64.5709 72.4539C63.9083 71.783 63.9083 70.6911 64.5786 70.0124L66.4189 68.1247V69.5138L68.1506 71.2626L66.9742 72.4539C66.3116 73.1249 65.2336 73.1249 64.5709 72.4539ZM69.3774 74.8877L70.5572 73.6929L72.9638 76.1233L71.7806 77.3214C71.1179 77.9924 70.0399 77.9923 69.3774 77.3214C68.7132 76.6487 68.7132 75.5603 69.3774 74.8877ZM74.1838 79.7551L75.3704 78.5536L77.777 80.984L76.5871 82.189C75.9245 82.86 74.8463 82.86 74.1839 82.189C73.5213 81.5179 73.5213 80.4262 74.1838 79.7551ZM81.3935 87.0564C80.731 87.7274 79.6529 87.7274 78.9902 87.0564C78.3275 86.3855 78.3275 85.2936 78.9902 84.6227L80.1833 83.4143L82.5899 85.8447L81.3935 87.0564ZM105.426 72.4539C104.763 73.1249 103.685 73.125 103.022 72.4542C103.022 72.454 103.022 72.454 103.022 72.4539L98.2159 67.5865L95.8127 70.0202L100.619 74.8878C101.283 75.5604 101.283 76.6488 100.619 77.3215C99.9566 77.9925 98.8784 77.9925 98.2159 77.3215L93.4094 72.454L91.0062 74.8878L95.8127 79.7552C96.4752 80.4262 96.4752 81.518 95.8127 82.189C95.1501 82.8599 94.0722 82.86 93.4094 82.189L88.6029 77.3214L86.1997 79.7551L91.0062 84.6227C91.6704 85.2954 91.6704 86.3838 91.0062 87.0564C90.3435 87.7275 89.2655 87.7275 88.6012 87.0548L69.8177 68.0853V63.222L60.7997 54.0389L72.8199 41.866L80.172 49.3016L74.1839 55.4177C72.1916 57.4351 72.1912 60.7012 74.1839 62.719C76.1716 64.732 79.4058 64.7318 81.3935 62.719L85.0838 58.9817C88.3203 61.4358 92.5195 61.9998 96.2004 60.6779L105.426 70.0203C106.088 70.6911 106.088 71.7829 105.426 72.4539V72.4539Z" fill="white"></path> </g> <defs> <filter id="filter0_d_19_624" x="-9" y="-14" width="188" height="188" filterUnits="userSpaceOnUse" color-interpolation-filters="sRGB"> <feFlood flood-opacity="0" result="BackgroundImageFix"></feFlood> <feColorMatrix in="SourceAlpha" type="matrix" values="0 0 0 0 0 0 0 0 0 0 0 0 0 0 0 0 0 0 127 0" result="hardAlpha"></feColorMatrix> <feOffset dy="16"></feOffset> <feGaussianBlur stdDeviation="16"></feGaussianBlur> <feColorMatrix type="matrix" values="0 0 0 0 0 0 0 0 0 0.858824 0 0 0 0 0.898039 0 0 0 0.3 0"></feColorMatrix> <feBlend mode="normal" in2="BackgroundImageFix" result="effect1_dropShadow_19_624"></feBlend> <feBlend mode="normal" in="SourceGraphic" in2="effect1_dropShadow_19_624" result="shape"></feBlend> </filter> <linearGradient id="paint0_linear_19_624" x1="74.9157" y1="2" x2="99.1691" y2="94.3371" gradientUnits="userSpaceOnUse"> <stop stop-color="#00DBE5"></stop> <stop offset="1" stop-color="#8E67FF"></stop> </linearGradient> <clipPath id="clip0_19_624"> <rect width="170" height="170" fill="white"></rect> </clipPath> </defs> </svg> 