<?xml version="1.0" encoding="UTF-8"?> <svg xmlns="http://www.w3.org/2000/svg" width="512" height="512" viewBox="0 0 512 512" fill="none"> <path d="M256.617 31L450.82 143.803V368.996L256.617 481.8L115.302 399.986L62 369.41V368.996V347.51V347.097V143.39C126.872 106.202 191.745 68.601 256.617 31ZM247.526 435.934L256.203 440.893L415.285 348.75V338.42C359.503 371.063 303.721 403.292 247.526 435.934ZM203.727 410.316L212.404 415.274L397.93 307.843L389.253 302.885C327.273 338.42 265.294 374.368 203.727 410.316ZM159.515 384.698L168.192 389.656L353.718 282.225L345.041 277.267C283.061 312.802 221.082 348.75 159.515 384.698ZM283.475 261.565L256.617 277.267H256.203L114.063 358.666L123.98 364.451L309.505 257.019L300.829 252.061C295.044 254.953 289.259 258.259 283.475 261.565ZM97.5355 297.513L123.154 312.388L132.244 307.43L97.5355 287.183C97.5355 290.902 97.5355 294.207 97.5355 297.513ZM97.5355 246.277L167.779 286.77L176.869 281.811L97.9481 235.947C97.5349 239.666 97.5355 242.971 97.5355 246.277ZM335.537 230.575L415.698 276.853V266.523L344.627 225.203C341.322 227.269 338.429 228.922 335.537 230.575ZM97.5355 195.04L211.991 261.565L221.081 256.607L97.5355 184.71C97.5355 188.015 97.5355 191.734 97.5355 195.04ZM255.377 226.029L123.98 149.175L115.302 154.133L256.203 235.947L265.293 230.575L396.691 153.307L388.84 148.762C344.628 174.38 300.002 200.411 255.377 226.029ZM379.749 204.957L415.698 226.029V215.699L388.427 199.999C385.534 201.652 382.641 203.304 379.749 204.957ZM159.102 128.515L255.377 184.71L264.881 179.339L168.192 123.143C165.299 125.209 162.407 126.862 159.102 128.515ZM203.314 102.897L300.415 159.091L309.093 154.133L211.991 97.9379C209.512 99.5907 206.619 101.244 203.314 102.897ZM247.526 77.278L344.627 133.473L353.718 128.515L256.617 72.3198C253.724 73.9726 250.831 75.6252 247.526 77.278Z" fill="#00CCD6"></path> </svg> 