<?xml version="1.0" encoding="UTF-8"?> <svg xmlns="http://www.w3.org/2000/svg" width="170" height="170" viewBox="0 0 170 170" fill="none"> <g clip-path="url(#clip0_19_624)"> <g filter="url(#filter0_d_19_624)"> <rect x="23" y="2" width="124" height="124" rx="62" fill="url(#paint0_linear_19_624)"></rect> </g> <path d="M115 66.1333H111C111 65.155 111 57.0489 111 55.8666C111 41.5301 99.3364 29.8666 85 29.8666C70.6636 29.8666 59 41.5301 59 55.8666V66.1333H55V70.1333H59V76.1333C59 79.4417 61.6916 82.1333 65 82.1333H75V58.1333H65C64.2988 58.1333 63.626 58.2553 63 58.4773V55.8666C63 43.7358 72.8692 33.8666 85 33.8666C97.1308 33.8666 107 43.7358 107 55.8666V58.4773C106.374 58.2553 105.701 58.1333 105 58.1333H95V82.1333H105C105.646 82.1333 106.268 82.0294 106.851 81.8397C106.039 86.5433 101.932 90.1333 97 90.1333H90.656C89.8304 87.8054 87.6073 86.1333 85 86.1333C81.6916 86.1333 79 88.8249 79 92.1333C79 95.4417 81.6916 98.1333 85 98.1333C87.6073 98.1333 89.8304 96.4612 90.656 94.1333H97C104.72 94.1333 111 87.8529 111 80.1333C111 78.2529 111 72.4862 111 70.1333H115V66.1333ZM65 62.1333H71V78.1333H65C63.8972 78.1333 63 77.2361 63 76.1333V64.1333C63 63.0305 63.8972 62.1333 65 62.1333ZM85 94.1333C83.8972 94.1333 83 93.2361 83 92.1333C83 91.0305 83.8972 90.1333 85 90.1333C86.1028 90.1333 87 91.0305 87 92.1333C87 93.2361 86.1028 94.1333 85 94.1333ZM107 76.1333C107 77.2361 106.103 78.1333 105 78.1333H99V62.1333H105C106.103 62.1333 107 63.0305 107 64.1333V76.1333Z" fill="white"></path> </g> <defs> <filter id="filter0_d_19_624" x="-9" y="-14" width="188" height="188" filterUnits="userSpaceOnUse" color-interpolation-filters="sRGB"> <feFlood flood-opacity="0" result="BackgroundImageFix"></feFlood> <feColorMatrix in="SourceAlpha" type="matrix" values="0 0 0 0 0 0 0 0 0 0 0 0 0 0 0 0 0 0 127 0" result="hardAlpha"></feColorMatrix> <feOffset dy="16"></feOffset> <feGaussianBlur stdDeviation="16"></feGaussianBlur> <feColorMatrix type="matrix" values="0 0 0 0 0 0 0 0 0 0.858824 0 0 0 0 0.898039 0 0 0 0.3 0"></feColorMatrix> <feBlend mode="normal" in2="BackgroundImageFix" result="effect1_dropShadow_19_624"></feBlend> <feBlend mode="normal" in="SourceGraphic" in2="effect1_dropShadow_19_624" result="shape"></feBlend> </filter> <linearGradient id="paint0_linear_19_624" x1="85" y1="2" x2="85" y2="126" gradientUnits="userSpaceOnUse"> <stop stop-color="#3DE812"></stop> <stop offset="0.786458" stop-color="#00F0FF" stop-opacity="0.75"></stop> </linearGradient> <clipPath id="clip0_19_624"> <rect width="170" height="170" fill="white"></rect> </clipPath> </defs> </svg> 