<?xml version="1.0" encoding="UTF-8"?> <svg xmlns="http://www.w3.org/2000/svg" width="2343" height="451" viewBox="0 0 2343 451" fill="none"> <path d="M1802.81 113.217V155.363L1829.26 164.867V339.236H1887.52V113.217H1802.81ZM1853.64 16.5278C1835.04 16.5278 1820.99 32.2298 1820.99 49.9973C1820.99 68.178 1835.04 83.4658 1853.64 83.4658C1871.82 83.4658 1887.52 68.178 1887.52 49.9973C1887.52 32.2298 1872.23 16.5278 1853.64 16.5278Z" fill="#A4A4AA"></path> <path d="M1909 113.218V339.237H1969.74V214.452C1969.74 188.833 1985.86 165.694 2015.19 165.694C2037.51 165.694 2054.86 179.743 2054.86 206.188V339.237H2115.19V203.294C2115.19 131.398 2072.22 109.086 2030.9 109.086C1982.96 109.086 1965.2 143.381 1965.2 143.381L1955.69 113.218H1909V113.218Z" fill="#A4A4AA"></path> <path d="M1362 113.132V339.151H1422.74V214.366C1422.74 188.747 1438.85 165.608 1468.19 165.608C1490.5 165.608 1507.86 179.657 1507.86 206.102V339.151H1568.19V203.208C1568.19 131.312 1525.21 109 1483.89 109C1435.96 109 1418.19 143.295 1418.19 143.295L1408.69 113.132H1362V113.132Z" fill="#A4A4AA"></path> <path d="M2126.76 228.497C2126.76 297.501 2176.76 343.779 2244.52 343.779C2274.69 343.779 2306.92 337.168 2329.23 324.359L2309.4 280.56C2294.52 287.171 2271.38 294.195 2245.76 294.195C2218.91 294.195 2191.22 282.212 2188.74 249.983H2339.97C2339.97 249.983 2342.04 239.239 2342.04 223.951C2342.04 164.037 2308.16 109.495 2238.74 109.495C2171.8 108.669 2126.76 159.079 2126.76 228.497ZM2187.92 207.423C2193.7 176.847 2213.95 160.733 2242.04 160.733C2275.1 160.733 2284.6 182.631 2285.84 207.423H2187.92Z" fill="#A4A4AA"></path> <path d="M918.124 113.218L1005.72 337.997C1002.83 346.674 998.284 355.351 989.193 355.351C979.277 355.765 960.684 352.873 952.833 351.633L942.503 406.175C959.444 411.547 975.559 413.613 990.847 413.613C1027.62 413.613 1044.15 395.845 1061.09 354.112L1157.78 113.63H1094.97L1037.95 276.844H1036.71L981.343 113.63H918.124V113.218Z" fill="#D4D4DA"></path> <path d="M597.895 161.146C629.711 161.146 655.743 186.765 655.743 226.432C655.743 265.273 629.298 291.717 597.895 291.717C561.12 291.717 537.981 264.859 537.981 226.432C537.981 184.699 565.665 161.146 597.895 161.146ZM608.225 108.67C587.152 108.67 559.881 120.653 544.179 143.792L533.849 112.802H486.331V412.785H544.179V310.311C559.054 335.103 592.524 343.367 607.812 343.367C677.643 343.367 714.83 288.412 714.83 226.846C714.83 159.907 674.75 108.67 608.225 108.67Z" fill="#D4D4DA"></path> <path d="M740.453 127.264L751.197 169.41C768.138 165.691 799.541 160.734 819.375 160.734C837.555 160.734 860.281 165.279 860.281 197.922V204.532C845.819 202.879 828.464 201.64 813.589 201.64C761.939 201.64 720.62 225.192 720.62 273.95C720.62 321.881 760.701 347.499 802.02 347.499C833.01 347.499 859.455 330.971 872.264 308.658V313.617C872.264 338.409 896.229 343.367 910.278 343.367C926.393 343.367 944.573 337.169 946.226 335.929V288.412C937.136 289.238 929.698 289.651 926.392 289.651C919.781 289.651 916.889 287.998 916.889 281.8V188.004C916.889 138.834 885.073 112.802 829.291 112.802C798.301 112.802 760.7 120.653 740.453 127.264ZM859.868 243.373V266.099C859.868 287.172 833.836 302.46 811.523 302.46C792.103 302.46 774.749 291.304 774.749 271.057C774.749 244.613 804.499 239.654 823.919 239.654C835.489 240.067 848.712 241.721 859.868 243.373Z" fill="#D4D4DA"></path> <path d="M194.617 0L388.82 112.803V337.996L194.617 450.8L53.3022 368.986L0 338.41V337.996V316.51V316.097V112.39C64.8721 75.2019 129.745 37.601 194.617 0ZM185.526 404.934L194.203 409.893L353.285 317.75V307.42C297.503 340.063 241.721 372.292 185.526 404.934ZM141.727 379.316L150.404 384.274L335.93 276.843L327.253 271.885C265.273 307.42 203.294 343.368 141.727 379.316ZM97.5152 353.698L106.192 358.656L291.718 251.225L283.041 246.267C221.061 281.802 159.082 317.75 97.5152 353.698ZM221.475 230.565L194.617 246.267H194.203L52.0634 327.666L61.9797 333.451L247.505 226.019L238.829 221.061C233.044 223.953 227.259 227.259 221.475 230.565ZM35.5355 266.513L61.1536 281.388L70.2437 276.43L35.5355 256.183C35.5355 259.902 35.5355 263.207 35.5355 266.513ZM35.5355 215.277L105.779 255.77L114.869 250.811L35.9481 204.947C35.5349 208.666 35.5355 211.971 35.5355 215.277ZM273.537 199.575L353.698 245.853V235.523L282.627 194.203C279.322 196.269 276.429 197.922 273.537 199.575ZM35.5355 164.04L149.991 230.565L159.081 225.607L35.5355 153.71C35.5355 157.015 35.5355 160.734 35.5355 164.04ZM193.377 195.029L61.9797 118.175L53.3022 123.133L194.203 204.947L203.293 199.575L334.691 122.307L326.84 117.762C282.628 143.38 238.002 169.411 193.377 195.029ZM317.749 173.957L353.698 195.029V184.699L326.427 168.999C323.534 170.652 320.641 172.304 317.749 173.957ZM97.1016 97.5152L193.377 153.71L202.881 148.339L106.192 92.1434C103.299 94.2094 100.407 95.8624 97.1016 97.5152ZM141.314 71.8971L238.415 128.091L247.093 123.133L149.991 66.9379C147.512 68.5907 144.619 70.2443 141.314 71.8971ZM185.526 46.278L282.627 102.473L291.718 97.5152L194.617 41.3198C191.724 42.9726 188.831 44.6252 185.526 46.278Z" fill="#D4D4DA"></path> <path fill-rule="evenodd" clip-rule="evenodd" d="M1135.59 236.754C1141.36 298.653 1189.26 339.293 1252.76 339.293C1282.92 339.293 1315.15 332.682 1337.47 319.873L1317.63 276.075C1302.76 282.686 1279.62 289.709 1254 289.709C1227.14 289.709 1199.46 277.727 1196.98 245.497H1348.21C1348.21 245.497 1350.28 234.754 1350.28 219.466C1350.28 159.552 1316.39 105.01 1246.98 105.01C1221.1 104.691 1198.5 112.026 1180.51 125.154L1135.59 236.754ZM1250.28 156.247C1222.18 156.247 1201.94 172.361 1196.15 202.938H1294.08C1292.84 178.146 1283.34 156.247 1250.28 156.247Z" fill="#A4A4AA"></path> <path fill-rule="evenodd" clip-rule="evenodd" d="M1634.42 115.565C1633.94 115.742 1633.46 115.924 1632.99 116.108C1632.99 116.125 1632.99 116.142 1632.99 116.159C1631.64 116.732 1630.31 117.345 1629 118C1615.46 124.77 1604.6 135.721 1596.62 147.597C1588.65 159.474 1584.3 173.003 1584.02 186.84C1583.77 198.478 1586.41 209.993 1591.7 220.578L1591.67 220.648C1591.83 220.933 1592 221.217 1592.16 221.499C1593.03 223.182 1593.97 224.841 1594.98 226.473C1597.24 230.157 1599.83 233.662 1602.7 236.957C1590.69 244.775 1580.1 255.852 1580.1 274.776C1580.1 291.717 1588.77 305.766 1604.48 313.204C1604.16 313.398 1603.84 313.596 1603.51 313.8C1594.68 319.225 1580.1 328.193 1580.1 353.284C1580.1 405.76 1647.04 412.785 1683.4 412.785C1720.17 412.785 1782.98 402.868 1782.98 347.499C1782.98 319.402 1770.58 289.651 1708.6 289.651C1706.86 289.651 1705.12 289.653 1703.4 289.654C1661.54 289.685 1627.62 289.71 1627.62 271.058C1627.62 266.512 1631.75 261.554 1635.47 259.488C1649.1 266.099 1668.94 267.752 1680.09 267.752C1739.18 267.752 1771 235.936 1771 194.616C1771 178.501 1766.04 168.997 1762.73 163.212L1790.83 156.188V113.216H1707.36C1699.1 109.497 1685.05 108.67 1676.37 108.67C1670.56 108.67 1664.96 108.993 1659.58 109.638C1650.89 110.523 1642.36 112.384 1634.42 115.565ZM1732.57 347.499C1732.57 339.235 1725.96 333.037 1712.73 333.037C1664.8 333.037 1651.99 332.211 1640.84 329.732C1635.47 332.211 1631.33 339.649 1631.33 346.673C1631.33 366.92 1659.02 367.746 1685.88 367.746C1699.51 367.746 1732.57 366.92 1732.57 347.499ZM1716.87 188.83C1716.87 168.584 1703.64 152.056 1678.85 152.056C1653.23 152.056 1637.95 168.584 1638.36 189.244C1638.36 211.144 1654.06 227.672 1678.44 227.672C1701.16 227.672 1716.87 211.97 1716.87 188.83Z" fill="#A4A4AA"></path> </svg> 