<?xml version="1.0" encoding="UTF-8"?> <svg xmlns="http://www.w3.org/2000/svg" width="560" height="350" viewBox="0 0 560 350" fill="none"> <path d="M264.75 149.745L223.108 80.0444L296.729 122.558L296.758 136.014L323.696 151.111V244.109L336.171 262.972L320.594 270.919L276.702 202.771L295.82 191.725V151.111L278.072 142.367L264.75 149.745Z" fill="url(#paint0_linear_33_743)"></path> <rect width="85.0153" height="18.7507" transform="matrix(0.866025 0.5 -0.866025 0.5 239.336 70.6753)" fill="url(#paint1_linear_33_743)"></rect> <rect width="30.6114" height="18.7507" transform="matrix(0.866025 0.5 -0.866025 0.5 312.998 126.64)" fill="url(#paint2_linear_33_743)"></rect> <rect width="18.7537" height="93.6527" transform="matrix(0.866025 -0.5 2.20305e-08 1 323.271 151.257)" fill="url(#paint3_linear_33_743)"></rect> <rect width="18.7509" height="13.4714" transform="matrix(0.866025 -0.5 2.20305e-08 1 296.726 122.558)" fill="url(#paint4_linear_33_743)"></rect> <path d="M219.901 109.031L248.672 155.148V186.574L276.75 202.724L320.669 270.927L251.522 232.885V206.481L219.901 188.209V109.031Z" fill="url(#paint5_linear_33_743)"></path> <rect width="32.3903" height="18.7507" transform="matrix(0.866025 0.5 -0.866025 0.5 264.903 177.2)" fill="url(#paint6_linear_33_743)"></rect> <rect width="18.751" height="31.4746" transform="matrix(0.866025 -0.5 2.20305e-08 1 248.659 155.12)" fill="url(#paint7_linear_33_743)"></rect> <path d="M235.476 100.849L219.909 109.042L248.634 155.125L264.894 145.762L235.476 100.849Z" fill="url(#paint8_linear_33_743)"></path> <rect width="15.227" height="17.2848" transform="matrix(0.866025 -0.5 2.20305e-08 1 375.51 123.721)" fill="url(#paint9_linear_33_743)"></rect> <rect width="21.2095" height="18.7507" transform="matrix(0.866025 0.5 -0.866025 0.5 345.607 60.6919)" fill="url(#paint10_linear_33_743)"></rect> <path d="M347.737 80.668L375.514 123.782L388.697 116.105L363.977 71.292L347.737 80.668Z" fill="url(#paint11_linear_33_743)"></path> <path d="M329.379 115.154V70.0811L347.692 80.621L375.511 123.775V140.979L329.379 115.154Z" fill="url(#paint12_linear_33_743)"></path> <rect width="14.6909" height="26.0241" transform="matrix(0.866025 -0.5 2.20305e-08 1 249.17 248.554)" fill="url(#paint13_linear_33_743)"></rect> <rect width="32.2582" height="15.2044" transform="matrix(0.866025 0.5 -0.866025 0.5 218.388 196.238)" fill="url(#paint14_linear_33_743)"></rect> <rect width="17.951" height="14.6936" transform="matrix(0.866025 0.5 -0.866025 0.5 246.347 232.231)" fill="url(#paint15_linear_33_743)"></rect> <path d="M205.217 230.389V203.848L233.638 219.689V239.53L249.172 248.551V274.577L224.927 261.127L205.217 230.389Z" fill="url(#paint16_linear_33_743)"></path> <rect width="14.6645" height="19.8887" transform="matrix(0.866025 -0.5 2.20305e-08 1 233.626 219.689)" fill="url(#paint17_linear_33_743)"></rect> <g filter="url(#filter0_f_33_743)"> <rect width="24.2775" height="22.2233" transform="matrix(0.866025 0.5 -0.866025 0.5 397.01 203.588)" fill="url(#paint18_linear_33_743)"></rect> </g> <g opacity="0.7" filter="url(#filter1_f_33_743)"> <rect width="36.3817" height="33.3033" transform="matrix(0.866025 0.5 -0.866025 0.5 171.194 91.2788)" fill="url(#paint19_linear_33_743)"></rect> </g> <g opacity="0.3" filter="url(#filter2_f_33_743)"> <rect width="18.4424" height="16.8818" transform="matrix(0.866025 0.5 -0.866025 0.5 296.999 51.4707)" fill="url(#paint20_linear_33_743)"></rect> </g> <g opacity="0.25" filter="url(#filter3_f_33_743)"> <rect width="24.3306" height="22.2719" transform="matrix(0.866025 0.5 -0.866025 0.5 204.326 274.578)" fill="url(#paint21_linear_33_743)"></rect> </g> <defs> <filter id="filter0_f_33_743" x="367.765" y="193.588" width="60.2708" height="43.2505" filterUnits="userSpaceOnUse" color-interpolation-filters="sRGB"> <feFlood flood-opacity="0" result="BackgroundImageFix"></feFlood> <feBlend mode="normal" in="SourceGraphic" in2="BackgroundImageFix" result="shape"></feBlend> <feGaussianBlur stdDeviation="5" result="effect1_foregroundBlur_33_743"></feGaussianBlur> </filter> <filter id="filter1_f_33_743" x="127.352" y="76.2788" width="90.349" height="64.8423" filterUnits="userSpaceOnUse" color-interpolation-filters="sRGB"> <feFlood flood-opacity="0" result="BackgroundImageFix"></feFlood> <feBlend mode="normal" in="SourceGraphic" in2="BackgroundImageFix" result="shape"></feBlend> <feGaussianBlur stdDeviation="7.5" result="effect1_foregroundBlur_33_743"></feGaussianBlur> </filter> <filter id="filter2_f_33_743" x="276.379" y="45.4707" width="42.5917" height="29.6621" filterUnits="userSpaceOnUse" color-interpolation-filters="sRGB"> <feFlood flood-opacity="0" result="BackgroundImageFix"></feFlood> <feBlend mode="normal" in="SourceGraphic" in2="BackgroundImageFix" result="shape"></feBlend> <feGaussianBlur stdDeviation="3" result="effect1_foregroundBlur_33_743"></feGaussianBlur> </filter> <filter id="filter3_f_33_743" x="174.038" y="263.578" width="62.3589" height="45.3013" filterUnits="userSpaceOnUse" color-interpolation-filters="sRGB"> <feFlood flood-opacity="0" result="BackgroundImageFix"></feFlood> <feBlend mode="normal" in="SourceGraphic" in2="BackgroundImageFix" result="shape"></feBlend> <feGaussianBlur stdDeviation="5.5" result="effect1_foregroundBlur_33_743"></feGaussianBlur> </filter> <linearGradient id="paint0_linear_33_743" x1="291.03" y1="138.849" x2="209.995" y2="213.755" gradientUnits="userSpaceOnUse"> <stop stop-color="#37FFCF"></stop> <stop offset="1" stop-color="#377BFF"></stop> </linearGradient> <linearGradient id="paint1_linear_33_743" x1="94.3905" y1="9.37553" x2="-84.8946" y2="105.321" gradientUnits="userSpaceOnUse"> <stop stop-color="#00DBE5"></stop> <stop offset="1" stop-color="#9C4EFF"></stop> </linearGradient> <linearGradient id="paint2_linear_33_743" x1="27.028" y1="9.14579" x2="-34.5686" y2="37.9121" gradientUnits="userSpaceOnUse"> <stop stop-color="#00DBE5"></stop> <stop offset="1" stop-color="#9C4EFF"></stop> </linearGradient> <linearGradient id="paint3_linear_33_743" x1="9.37684" y1="86.167" x2="45.719" y2="13.4826" gradientUnits="userSpaceOnUse"> <stop stop-color="#00DBE5"></stop> <stop offset="1" stop-color="#9C4EFF"></stop> </linearGradient> <linearGradient id="paint4_linear_33_743" x1="5.96785" y1="36.9446" x2="32.0803" y2="-14.8659" gradientUnits="userSpaceOnUse"> <stop stop-color="#00DBE5"></stop> <stop offset="1" stop-color="#9C4EFF"></stop> </linearGradient> <linearGradient id="paint5_linear_33_743" x1="292.766" y1="111.587" x2="177.663" y2="188.933" gradientUnits="userSpaceOnUse"> <stop offset="0.677083" stop-color="#00DBE5"></stop> <stop offset="1" stop-color="#9C4EFF"></stop> </linearGradient> <linearGradient id="paint6_linear_33_743" x1="-6.9652" y1="2.54542" x2="45.7728" y2="-14.2766" gradientUnits="userSpaceOnUse"> <stop stop-color="#37FFCF"></stop> <stop offset="1" stop-color="#377BFF"></stop> </linearGradient> <linearGradient id="paint7_linear_33_743" x1="13.0773" y1="33.4538" x2="-11.6755" y2="-32.5963" gradientUnits="userSpaceOnUse"> <stop stop-color="#37FFCF"></stop> <stop offset="1" stop-color="#377BFF"></stop> </linearGradient> <linearGradient id="paint8_linear_33_743" x1="259.386" y1="155.125" x2="233.377" y2="80.4672" gradientUnits="userSpaceOnUse"> <stop stop-color="#00DBE5"></stop> <stop offset="1" stop-color="#9C4EFF"></stop> </linearGradient> <linearGradient id="paint9_linear_33_743" x1="7.61352" y1="24.6369" x2="8.70415" y2="-17.5755" gradientUnits="userSpaceOnUse"> <stop stop-color="#00DBE5"></stop> <stop offset="1" stop-color="#9C4EFF"></stop> </linearGradient> <linearGradient id="paint10_linear_33_743" x1="-4.4078" y1="-8.04398" x2="45.1389" y2="-7.09319" gradientUnits="userSpaceOnUse"> <stop stop-color="#37FFCF"></stop> <stop offset="1" stop-color="#377BFF"></stop> </linearGradient> <linearGradient id="paint11_linear_33_743" x1="342.601" y1="58.4129" x2="401.563" y2="167.195" gradientUnits="userSpaceOnUse"> <stop stop-color="#37FFCF"></stop> <stop offset="1" stop-color="#377BFF"></stop> </linearGradient> <linearGradient id="paint12_linear_33_743" x1="357.126" y1="92.5206" x2="284.881" y2="165.99" gradientUnits="userSpaceOnUse"> <stop stop-color="#37FFCF"></stop> <stop offset="1" stop-color="#377BFF"></stop> </linearGradient> <linearGradient id="paint13_linear_33_743" x1="38.4593" y1="92.0182" x2="76.7714" y2="55.5346" gradientUnits="userSpaceOnUse"> <stop stop-color="#00DBE5"></stop> <stop offset="1" stop-color="#9C4EFF"></stop> </linearGradient> <linearGradient id="paint14_linear_33_743" x1="4.53087" y1="9.60931" x2="132.63" y2="5.52126" gradientUnits="userSpaceOnUse"> <stop stop-color="#00DBE5"></stop> <stop offset="1" stop-color="#9C4EFF"></stop> </linearGradient> <linearGradient id="paint15_linear_33_743" x1="2.52134" y1="9.28642" x2="25.5689" y2="4.63814" gradientUnits="userSpaceOnUse"> <stop stop-color="#00DBE5"></stop> <stop offset="1" stop-color="#9C4EFF"></stop> </linearGradient> <linearGradient id="paint16_linear_33_743" x1="257.801" y1="203.848" x2="200.84" y2="231.493" gradientUnits="userSpaceOnUse"> <stop stop-color="#00DBE5"></stop> <stop offset="1" stop-color="#9C4EFF"></stop> </linearGradient> <linearGradient id="paint17_linear_33_743" x1="5.80067" y1="-0.052669" x2="-22.7618" y2="54.4674" gradientUnits="userSpaceOnUse"> <stop stop-color="#00DBE5"></stop> <stop offset="1" stop-color="#9C4EFF"></stop> </linearGradient> <linearGradient id="paint18_linear_33_743" x1="3.40994" y1="14.0453" x2="99.8899" y2="12.4599" gradientUnits="userSpaceOnUse"> <stop stop-color="#00DBE5"></stop> <stop offset="1" stop-color="#9C4EFF"></stop> </linearGradient> <linearGradient id="paint19_linear_33_743" x1="18.1909" y1="30.6413" x2="21.1273" y2="-1.39812" gradientUnits="userSpaceOnUse"> <stop stop-color="#00DBE5"></stop> <stop offset="1" stop-color="#9C4EFF"></stop> </linearGradient> <linearGradient id="paint20_linear_33_743" x1="9.22118" y1="15.5325" x2="10.7097" y2="-0.708724" gradientUnits="userSpaceOnUse"> <stop stop-color="#00DBE5"></stop> <stop offset="1" stop-color="#9C4EFF"></stop> </linearGradient> <linearGradient id="paint21_linear_33_743" x1="12.1653" y1="20.4917" x2="14.1291" y2="-0.935004" gradientUnits="userSpaceOnUse"> <stop stop-color="#00DBE5"></stop> <stop offset="1" stop-color="#9C4EFF"></stop> </linearGradient> </defs> </svg> 