<?xml version="1.0" encoding="UTF-8"?> <svg xmlns="http://www.w3.org/2000/svg" width="170" height="170" viewBox="0 0 170 170" fill="none"> <g clip-path="url(#clip0_19_624)"> <g filter="url(#filter0_d_19_624)"> <rect x="23" y="2" width="124" height="124" rx="62" fill="url(#paint0_linear_19_624)"></rect> </g> <path d="M108.072 44.3917L85.8688 35.1732C85.3125 34.9423 84.6873 34.9422 84.1312 35.1732L61.9281 44.3917C61.0825 44.7429 60.5312 45.5684 60.5312 46.4841V57.6904C60.5312 73.1208 69.8576 87.0008 84.1438 92.832C84.6926 93.0559 85.3073 93.0559 85.8562 92.832C100.142 87.001 109.469 73.1209 109.469 57.6904V46.4841C109.469 45.5684 108.918 44.7429 108.072 44.3917V44.3917ZM104.938 57.6904C104.938 70.8078 97.2344 82.8833 85 88.2734C73.0926 83.0273 65.0625 71.1633 65.0625 57.6904V47.9966L85 39.7187L104.938 47.9966V57.6904ZM82.4958 65.3272L92.2339 55.5892C93.1186 54.7045 94.5531 54.7044 95.438 55.5892C96.3228 56.474 96.3227 57.9085 95.4378 58.7932L84.0978 70.1333C83.2129 71.0182 81.7784 71.0179 80.8938 70.1333L74.562 63.8015C73.6772 62.9167 73.6772 61.4822 74.562 60.5975C75.4469 59.7127 76.8814 59.7126 77.7661 60.5975L82.4958 65.3272Z" fill="white"></path> </g> <defs> <filter id="filter0_d_19_624" x="-9" y="-14" width="188" height="188" filterUnits="userSpaceOnUse" color-interpolation-filters="sRGB"> <feFlood flood-opacity="0" result="BackgroundImageFix"></feFlood> <feColorMatrix in="SourceAlpha" type="matrix" values="0 0 0 0 0 0 0 0 0 0 0 0 0 0 0 0 0 0 127 0" result="hardAlpha"></feColorMatrix> <feOffset dy="16"></feOffset> <feGaussianBlur stdDeviation="16"></feGaussianBlur> <feColorMatrix type="matrix" values="0 0 0 0 0 0 0 0 0 0.858824 0 0 0 0 0.898039 0 0 0 0.3 0"></feColorMatrix> <feBlend mode="normal" in2="BackgroundImageFix" result="effect1_dropShadow_19_624"></feBlend> <feBlend mode="normal" in="SourceGraphic" in2="effect1_dropShadow_19_624" result="shape"></feBlend> </filter> <linearGradient id="paint0_linear_19_624" x1="136.479" y1="-13.7282" x2="43.0026" y2="131.143" gradientUnits="userSpaceOnUse"> <stop stop-color="#FF0CCE"></stop> <stop offset="1" stop-color="#FFDE00"></stop> </linearGradient> <clipPath id="clip0_19_624"> <rect width="170" height="170" fill="white"></rect> </clipPath> </defs> </svg> 