<?xml version="1.0" encoding="UTF-8"?> <svg xmlns="http://www.w3.org/2000/svg" width="560" height="350" viewBox="0 0 560 350" fill="none"> <rect width="29.8344" height="13.3444" transform="matrix(5.56119e-08 1 0.866025 0.5 191.908 230.277)" fill="url(#paint0_linear_33_743)"></rect> <rect width="43.1844" height="13.3444" transform="matrix(0.866025 -0.5 0.866025 0.5 179.556 280.641)" fill="url(#paint1_linear_33_743)"></rect> <rect width="14.309" height="13.2633" transform="matrix(5.56119e-08 1 0.866025 0.5 216.935 244.726)" fill="url(#paint2_linear_33_743)"></rect> <path fill-rule="evenodd" clip-rule="evenodd" d="M179.559 266.331L179.559 237.458L191.951 230.303L191.951 259.176L216.957 244.739L216.957 259.049L191.951 273.486L191.951 273.486L179.559 280.641L179.559 280.641L179.559 266.331Z" fill="url(#paint3_linear_33_743)"></path> <rect width="39.0252" height="17.4553" transform="matrix(0.866025 -0.5 0.866025 0.5 297.826 97.6045)" fill="url(#paint4_linear_33_743)"></rect> <rect width="56.4878" height="17.317" transform="matrix(5.56119e-08 1 0.866025 0.5 346.799 50.6758)" fill="url(#paint5_linear_33_743)"></rect> <rect width="18.717" height="17.3491" transform="matrix(0.866025 -0.5 0.866025 0.5 330.561 116.503)" fill="url(#paint6_linear_33_743)"></rect> <path fill-rule="evenodd" clip-rule="evenodd" d="M330.588 60.036L297.884 78.9178L297.884 97.6356L330.588 78.7538L330.588 116.522L346.798 107.163L346.798 69.3949L346.803 69.3922L346.803 50.6744L346.798 50.6771L346.798 50.676L330.588 60.0349L330.588 60.036Z" fill="url(#paint7_linear_33_743)"></path> <path d="M281.274 129.127L280.305 127.447L326.458 100.775L327.427 102.455L281.274 129.127Z" fill="url(#paint8_linear_33_743)"></path> <path d="M307.927 120.407L306.958 118.727L328.406 106.332L329.376 108.012L307.927 120.407Z" fill="url(#paint9_linear_33_743)"></path> <path d="M221.302 281.701L220.404 280.143L234.638 271.918L235.536 273.476L221.302 281.701Z" fill="url(#paint10_linear_33_743)"></path> <path d="M202.804 285.229L202.179 284.146L225.478 270.681L226.103 271.765L202.804 285.229Z" fill="url(#paint11_linear_33_743)"></path> <rect width="15.2136" height="15.2281" transform="matrix(5.56119e-08 1 0.866025 -0.5 237.635 213.768)" fill="url(#paint12_linear_33_743)"></rect> <rect width="15.2251" height="15.2271" transform="matrix(5.56119e-08 1 0.866025 -0.5 301.338 175.117)" fill="url(#paint13_linear_33_743)"></rect> <rect width="61.2064" height="14.201" transform="matrix(0.866025 -0.5 0.866025 0.5 293.422 235.127)" fill="url(#paint14_linear_33_743)"></rect> <path fill-rule="evenodd" clip-rule="evenodd" d="M314.521 182.725L301.334 190.339L322.975 202.833L283.048 225.885L283.048 241.113L333.261 212.123L333.261 284.222L346.449 276.608L346.449 189.305L346.428 189.317L346.428 189.293L336.162 195.22L314.521 182.725Z" fill="url(#paint15_linear_33_743)"></path> <rect width="15.2272" height="124.626" transform="matrix(0.866025 -0.5 0.866025 0.5 237.624 228.974)" fill="url(#paint16_linear_33_743)"></rect> <path fill-rule="evenodd" clip-rule="evenodd" d="M250.822 206.141L250.822 221.369L346.428 276.567L346.428 276.593L358.727 283.694L358.727 196.394L358.724 196.393L358.724 193.022L314.52 167.501L314.52 182.728L346.428 201.15L346.428 261.34L250.822 206.141Z" fill="url(#paint17_linear_33_743)"></path> <rect width="90.6324" height="15.2281" transform="matrix(5.56119e-08 1 0.866025 -0.5 179.153 104.584)" fill="url(#paint18_linear_33_743)"></rect> <rect width="15.2272" height="47.0128" transform="matrix(0.866025 -0.5 0.866025 0.5 179.153 195.218)" fill="url(#paint19_linear_33_743)"></rect> <rect width="15.2272" height="102.044" transform="matrix(0.866025 -0.5 0.866025 0.5 191.414 126.88)" fill="url(#paint20_linear_33_743)"></rect> <path d="M192.339 112.197L192.339 96.9697L292.971 155.069L292.971 170.297L192.339 112.197Z" fill="url(#paint21_linear_33_743)"></path> <path d="M192.338 112.197L192.338 187.606L233.053 211.112L233.053 195.885L204.636 179.479L204.636 119.297L192.338 112.197Z" fill="url(#paint22_linear_33_743)"></path> <g filter="url(#filter0_f_33_743)"> <rect width="18.7001" height="8.36421" transform="matrix(0.866025 -0.5 0.866025 0.5 390.237 216.097)" fill="url(#paint23_linear_33_743)"></rect> <rect width="27.0678" height="8.29794" transform="matrix(5.56119e-08 1 0.866025 0.5 413.701 193.61)" fill="url(#paint24_linear_33_743)"></rect> <rect width="8.96882" height="8.31335" transform="matrix(0.866025 -0.5 0.866025 0.5 405.922 225.153)" fill="url(#paint25_linear_33_743)"></rect> <path fill-rule="evenodd" clip-rule="evenodd" d="M413.705 193.609L390.264 207.143L390.264 216.112L405.938 207.063L405.938 225.162L413.705 220.677L413.705 193.61L413.705 193.61L413.705 193.609Z" fill="url(#paint26_linear_33_743)"></path> </g> <g opacity="0.5" filter="url(#filter1_f_33_743)"> <rect width="12.394" height="5.54362" transform="matrix(0.866025 -0.5 0.866025 0.5 125.263 165.484)" fill="url(#paint27_linear_33_743)"></rect> <rect width="17.9399" height="5.49969" transform="matrix(5.56119e-08 1 0.866025 0.5 140.815 150.58)" fill="url(#paint28_linear_33_743)"></rect> <rect width="5.94434" height="5.50991" transform="matrix(0.866025 -0.5 0.866025 0.5 135.663 171.486)" fill="url(#paint29_linear_33_743)"></rect> <path fill-rule="evenodd" clip-rule="evenodd" d="M135.667 153.553L125.283 159.549L125.283 165.494L135.667 159.498L135.667 171.492L140.815 168.519L140.815 156.526L140.819 156.524L140.819 150.579L140.815 150.581L140.815 150.58L135.667 153.552L135.667 153.553Z" fill="url(#paint30_linear_33_743)"></path> </g> <defs> <filter id="filter0_f_33_743" x="377.237" y="180.609" width="56.6517" height="61.7007" filterUnits="userSpaceOnUse" color-interpolation-filters="sRGB"> <feFlood flood-opacity="0" result="BackgroundImageFix"></feFlood> <feBlend mode="normal" in="SourceGraphic" in2="BackgroundImageFix" result="shape"></feBlend> <feGaussianBlur stdDeviation="6.5" result="effect1_foregroundBlur_33_743"></feGaussianBlur> </filter> <filter id="filter1_f_33_743" x="116.263" y="141.579" width="38.3194" height="41.6616" filterUnits="userSpaceOnUse" color-interpolation-filters="sRGB"> <feFlood flood-opacity="0" result="BackgroundImageFix"></feFlood> <feBlend mode="normal" in="SourceGraphic" in2="BackgroundImageFix" result="shape"></feBlend> <feGaussianBlur stdDeviation="4.5" result="effect1_foregroundBlur_33_743"></feGaussianBlur> </filter> <linearGradient id="paint0_linear_33_743" x1="66.7541" y1="15.9445" x2="-19.5148" y2="60.2198" gradientUnits="userSpaceOnUse"> <stop stop-color="#00DBE5"></stop> <stop offset="1" stop-color="#9C4EFF"></stop> </linearGradient> <linearGradient id="paint1_linear_33_743" x1="89.5293" y1="65.7545" x2="-4.65744" y2="77.528" gradientUnits="userSpaceOnUse"> <stop stop-color="#00DBE5"></stop> <stop offset="1" stop-color="#9C4EFF"></stop> </linearGradient> <linearGradient id="paint2_linear_33_743" x1="22.0037" y1="20.7571" x2="-45.1604" y2="20.6616" gradientUnits="userSpaceOnUse"> <stop stop-color="#00DBE5"></stop> <stop offset="1" stop-color="#9C4EFF"></stop> </linearGradient> <linearGradient id="paint3_linear_33_743" x1="189.238" y1="268.47" x2="271.976" y2="274.298" gradientUnits="userSpaceOnUse"> <stop stop-color="#37FFCF"></stop> <stop offset="1" stop-color="#377BFF"></stop> </linearGradient> <linearGradient id="paint4_linear_33_743" x1="34.4569" y1="8.51393" x2="-33.429" y2="51.9309" gradientUnits="userSpaceOnUse"> <stop stop-color="#00DBE5"></stop> <stop offset="1" stop-color="#9C4EFF"></stop> </linearGradient> <linearGradient id="paint5_linear_33_743" x1="49.8753" y1="8.44646" x2="-24.1359" y2="77.5087" gradientUnits="userSpaceOnUse"> <stop stop-color="#00DBE5"></stop> <stop offset="1" stop-color="#9C4EFF"></stop> </linearGradient> <linearGradient id="paint6_linear_33_743" x1="16.526" y1="8.46216" x2="-25.3612" y2="21.3893" gradientUnits="userSpaceOnUse"> <stop stop-color="#00DBE5"></stop> <stop offset="1" stop-color="#9C4EFF"></stop> </linearGradient> <linearGradient id="paint7_linear_33_743" x1="299.131" y1="116.673" x2="463.444" y2="-94.8619" gradientUnits="userSpaceOnUse"> <stop stop-color="#37FFCF"></stop> <stop offset="1" stop-color="#377BFF"></stop> </linearGradient> <linearGradient id="paint8_linear_33_743" x1="277.106" y1="129.547" x2="280.129" y2="134.034" gradientUnits="userSpaceOnUse"> <stop stop-color="#3763FF"></stop> <stop offset="1" stop-color="#37FCD0"></stop> </linearGradient> <linearGradient id="paint9_linear_33_743" x1="305.53" y1="119.803" x2="308.866" y2="124.003" gradientUnits="userSpaceOnUse"> <stop stop-color="#3763FF"></stop> <stop offset="1" stop-color="#37FCD0"></stop> </linearGradient> <linearGradient id="paint10_linear_33_743" x1="219.484" y1="280.908" x2="222.761" y2="284.581" gradientUnits="userSpaceOnUse"> <stop stop-color="#3763FF"></stop> <stop offset="1" stop-color="#37FCD0"></stop> </linearGradient> <linearGradient id="paint11_linear_33_743" x1="200.579" y1="285.232" x2="202.581" y2="288.084" gradientUnits="userSpaceOnUse"> <stop stop-color="#3763FF"></stop> <stop offset="1" stop-color="#37FCD0"></stop> </linearGradient> <linearGradient id="paint12_linear_33_743" x1="13.4327" y1="7.42762" x2="-21.0412" y2="17.2799" gradientUnits="userSpaceOnUse"> <stop stop-color="#00DBE5"></stop> <stop offset="1" stop-color="#9C4EFF"></stop> </linearGradient> <linearGradient id="paint13_linear_33_743" x1="13.4428" y1="7.42712" x2="-21.0528" y2="17.2937" gradientUnits="userSpaceOnUse"> <stop stop-color="#00DBE5"></stop> <stop offset="1" stop-color="#9C4EFF"></stop> </linearGradient> <linearGradient id="paint14_linear_33_743" x1="54.0416" y1="6.92661" x2="-5.48765" y2="80.3222" gradientUnits="userSpaceOnUse"> <stop stop-color="#00DBE5"></stop> <stop offset="1" stop-color="#9C4EFF"></stop> </linearGradient> <linearGradient id="paint15_linear_33_743" x1="300.855" y1="244.641" x2="519.621" y2="28.0587" gradientUnits="userSpaceOnUse"> <stop stop-color="#37FFCF"></stop> <stop offset="1" stop-color="#377BFF"></stop> </linearGradient> <linearGradient id="paint16_linear_33_743" x1="7.61262" y1="121.389" x2="-69.7657" y2="76.9269" gradientUnits="userSpaceOnUse"> <stop stop-color="#00DBE5"></stop> <stop offset="1" stop-color="#9C4EFF"></stop> </linearGradient> <linearGradient id="paint17_linear_33_743" x1="405.315" y1="163.244" x2="280.515" y2="327.161" gradientUnits="userSpaceOnUse"> <stop stop-color="#00DBE5"></stop> <stop offset="1" stop-color="#9C4EFF"></stop> </linearGradient> <linearGradient id="paint18_linear_33_743" x1="80.0229" y1="7.42762" x2="23.0426" y2="104.439" gradientUnits="userSpaceOnUse"> <stop stop-color="#00DBE5"></stop> <stop offset="1" stop-color="#9C4EFF"></stop> </linearGradient> <linearGradient id="paint19_linear_33_743" x1="21.3551" y1="20.504" x2="-20.9333" y2="-9.67388" gradientUnits="userSpaceOnUse"> <stop stop-color="#00DBE5"></stop> <stop offset="1" stop-color="#9C4EFF"></stop> </linearGradient> <linearGradient id="paint20_linear_33_743" x1="7.61438" y1="35.2052" x2="48.1928" y2="61.4762" gradientUnits="userSpaceOnUse"> <stop stop-color="#00DBE5"></stop> <stop offset="1" stop-color="#9C4EFF"></stop> </linearGradient> <linearGradient id="paint21_linear_33_743" x1="202.632" y1="113.312" x2="282.955" y2="226.853" gradientUnits="userSpaceOnUse"> <stop stop-color="#37FFCF"></stop> <stop offset="1" stop-color="#377BFF"></stop> </linearGradient> <linearGradient id="paint22_linear_33_743" x1="202.632" y1="113.312" x2="282.955" y2="226.853" gradientUnits="userSpaceOnUse"> <stop stop-color="#37FFCF"></stop> <stop offset="1" stop-color="#377BFF"></stop> </linearGradient> <linearGradient id="paint23_linear_33_743" x1="16.5111" y1="4.0797" x2="-16.0185" y2="24.8842" gradientUnits="userSpaceOnUse"> <stop stop-color="#00DBE5"></stop> <stop offset="1" stop-color="#9C4EFF"></stop> </linearGradient> <linearGradient id="paint24_linear_33_743" x1="23.8992" y1="4.04738" x2="-11.5655" y2="37.1406" gradientUnits="userSpaceOnUse"> <stop stop-color="#00DBE5"></stop> <stop offset="1" stop-color="#9C4EFF"></stop> </linearGradient> <linearGradient id="paint25_linear_33_743" x1="7.91892" y1="4.05489" x2="-12.1526" y2="10.2493" gradientUnits="userSpaceOnUse"> <stop stop-color="#00DBE5"></stop> <stop offset="1" stop-color="#9C4EFF"></stop> </linearGradient> <linearGradient id="paint26_linear_33_743" x1="390.863" y1="225.234" x2="469.595" y2="123.872" gradientUnits="userSpaceOnUse"> <stop stop-color="#37FFCF"></stop> <stop offset="1" stop-color="#377BFF"></stop> </linearGradient> <linearGradient id="paint27_linear_33_743" x1="10.9432" y1="2.70394" x2="-10.6167" y2="16.4927" gradientUnits="userSpaceOnUse"> <stop stop-color="#00DBE5"></stop> <stop offset="1" stop-color="#9C4EFF"></stop> </linearGradient> <linearGradient id="paint28_linear_33_743" x1="15.8399" y1="2.68251" x2="-7.66533" y2="24.616" gradientUnits="userSpaceOnUse"> <stop stop-color="#00DBE5"></stop> <stop offset="1" stop-color="#9C4EFF"></stop> </linearGradient> <linearGradient id="paint29_linear_33_743" x1="5.24849" y1="2.6875" x2="-8.05446" y2="6.79301" gradientUnits="userSpaceOnUse"> <stop stop-color="#00DBE5"></stop> <stop offset="1" stop-color="#9C4EFF"></stop> </linearGradient> <linearGradient id="paint30_linear_33_743" x1="125.677" y1="171.54" x2="177.865" y2="104.357" gradientUnits="userSpaceOnUse"> <stop stop-color="#37FFCF"></stop> <stop offset="1" stop-color="#377BFF"></stop> </linearGradient> </defs> </svg> 